<svg width="25" height="50" viewBox="0 0 25 50" fill="none" xmlns="http://www.w3.org/2000/svg">
<path d="M0.798237 26.63H6.22322V49.1935C6.22322 49.639 6.58051 50 7.02146 50H16.2197C16.6607 50 17.0179 49.639 17.0179 49.1935V26.7363H23.2544C23.6599 26.7363 24.0011 26.4289 24.0474 26.0219L24.9946 17.7152C25.0206 17.4866 24.9489 17.2577 24.7976 17.0863C24.6461 16.9147 24.4293 16.8165 24.2018 16.8165H17.0183V11.6094C17.0183 10.0397 17.8548 9.24371 19.5049 9.24371C19.7401 9.24371 24.2018 9.24371 24.2018 9.24371C24.6427 9.24371 25 8.88258 25 8.43726V0.812419C25 0.366935 24.6427 0.00596774 24.2018 0.00596774H17.7289C17.6832 0.00370968 17.5818 0 17.4324 0C16.3093 0 12.4054 0.222742 9.32166 3.08887C5.90488 6.265 6.37983 10.0679 6.49334 10.7273V16.8163H0.798237C0.357291 16.8163 0 17.1773 0 17.6227V25.8234C0 26.2689 0.357291 26.63 0.798237 26.63Z" fill="#D50D33"/>
</svg>
