<svg width="50" height="50" viewBox="0 0 50 50" fill="none" xmlns="http://www.w3.org/2000/svg">
<path fill-rule="evenodd" clip-rule="evenodd" d="M24.2421 37.8801C31.7732 37.8801 37.8784 31.7749 37.8784 24.2438C37.8784 16.7126 31.7732 10.6074 24.2421 10.6074C16.7109 10.6074 10.6057 16.7126 10.6057 24.2438C10.6057 31.7749 16.7109 37.8801 24.2421 37.8801ZM24.2421 33.3347C29.2628 33.3347 33.333 29.2645 33.333 24.2438C33.333 19.223 29.2628 15.1529 24.2421 15.1529C19.2213 15.1529 15.1512 19.223 15.1512 24.2438C15.1512 29.2645 19.2213 33.3347 24.2421 33.3347Z" fill="#D50D33"/>
<path d="M38.6353 9.08984C37.38 9.08984 36.3625 10.1074 36.3625 11.3626C36.3625 12.6178 37.38 13.6353 38.6353 13.6353C39.8905 13.6353 40.908 12.6178 40.908 11.3626C40.908 10.1074 39.8905 9.08984 38.6353 9.08984Z" fill="#D50D33"/>
<path fill-rule="evenodd" clip-rule="evenodd" d="M1.48627 7.44559C0 10.3626 0 14.1811 0 21.8182V28.1818C0 35.8189 0 39.6375 1.48627 42.5543C2.79364 45.1202 4.87973 47.2064 7.44559 48.5136C10.3626 50 14.1811 50 21.8182 50H28.1818C35.8189 50 39.6375 50 42.5543 48.5136C45.1202 47.2064 47.2064 45.1202 48.5136 42.5543C50 39.6375 50 35.8189 50 28.1818V21.8182C50 14.1811 50 10.3626 48.5136 7.44559C47.2064 4.87973 45.1202 2.79364 42.5543 1.48627C39.6375 0 35.8189 0 28.1818 0H21.8182C14.1811 0 10.3626 0 7.44559 1.48627C4.87973 2.79364 2.79364 4.87973 1.48627 7.44559ZM28.1818 4.54545H21.8182C17.9246 4.54545 15.2778 4.549 13.232 4.71614C11.2392 4.87895 10.2201 5.17407 9.50918 5.5363C7.79861 6.40789 6.40789 7.79861 5.5363 9.50918C5.17407 10.2201 4.87895 11.2392 4.71614 13.232C4.549 15.2778 4.54545 17.9246 4.54545 21.8182V28.1818C4.54545 32.0755 4.549 34.722 4.71614 36.768C4.87895 38.7609 5.17407 39.78 5.5363 40.4909C6.40789 42.2014 7.79861 43.592 9.50918 44.4636C10.2201 44.8259 11.2392 45.1211 13.232 45.2839C15.2778 45.4509 17.9246 45.4545 21.8182 45.4545H28.1818C32.0755 45.4545 34.722 45.4509 36.768 45.2839C38.7609 45.1211 39.78 44.8259 40.4909 44.4636C42.2014 43.592 43.592 42.2014 44.4636 40.4909C44.8259 39.78 45.1211 38.7609 45.2839 36.768C45.4509 34.722 45.4545 32.0755 45.4545 28.1818V21.8182C45.4545 17.9246 45.4509 15.2778 45.2839 13.232C45.1211 11.2392 44.8259 10.2201 44.4636 9.50918C43.592 7.79861 42.2014 6.40789 40.4909 5.5363C39.78 5.17407 38.7609 4.87895 36.768 4.71614C34.722 4.549 32.0755 4.54545 28.1818 4.54545Z" fill="#D50D33"/>
</svg>
