<svg width="501" height="642" viewBox="0 0 501 642" fill="none" xmlns="http://www.w3.org/2000/svg">
<path d="M473.797 469.196C473.666 468.084 473.725 467.037 473.973 466.055C474.22 465.073 474.627 464.193 475.194 463.415C475.776 462.649 476.481 462.022 477.31 461.536C478.139 461.05 479.077 460.745 480.123 460.623C481.169 460.5 482.152 460.58 483.071 460.862C483.99 461.144 484.814 461.591 485.543 462.203C486.288 462.828 486.894 463.589 487.361 464.488C487.829 465.386 488.128 466.391 488.258 467.504C488.39 468.629 488.331 469.677 488.082 470.646C487.834 471.628 487.42 472.502 486.838 473.268C486.27 474.033 485.571 474.658 484.742 475.144C483.915 475.644 482.978 475.955 481.932 476.077C480.885 476.2 479.895 476.114 478.962 475.821C478.043 475.539 477.218 475.092 476.489 474.479C475.759 473.867 475.161 473.111 474.693 472.213C474.227 471.327 473.928 470.322 473.797 469.196ZM477.054 468.815C477.116 469.345 477.266 469.824 477.505 470.253C477.744 470.694 478.056 471.061 478.439 471.351C478.836 471.654 479.291 471.869 479.803 471.997C480.316 472.138 480.871 472.174 481.467 472.104C482.076 472.033 482.607 471.87 483.061 471.616C483.529 471.373 483.915 471.059 484.219 470.675C484.538 470.302 484.763 469.873 484.894 469.388C485.027 468.916 485.062 468.415 485 467.885C484.938 467.355 484.787 466.87 484.548 466.428C484.31 465.999 483.992 465.634 483.594 465.331C483.211 465.041 482.763 464.824 482.249 464.683C481.751 464.554 481.197 464.524 480.588 464.596C479.992 464.665 479.46 464.822 478.992 465.064C478.525 465.32 478.132 465.635 477.813 466.008C477.509 466.392 477.291 466.821 477.158 467.293C477.027 467.778 476.992 468.285 477.054 468.815ZM483.455 481.692L484.206 488.109L481.166 488.464L480.415 482.048L483.455 481.692ZM475.681 482.884L475.22 478.951L489.125 477.324L490.402 488.229L487.362 488.585L486.546 481.613L475.681 482.884ZM477.682 502.396C477.549 501.257 477.559 500.142 477.713 499.05C477.882 497.97 478.153 497.072 478.526 496.357L481.577 497.309C481.253 497.978 481.005 498.732 480.835 499.57C480.68 500.421 480.649 501.25 480.744 502.058C480.807 502.601 480.905 503.033 481.036 503.353C481.181 503.671 481.341 503.894 481.517 504.021C481.708 504.16 481.916 504.216 482.141 504.19C482.459 504.153 482.693 503.978 482.845 503.665C482.996 503.352 483.104 502.956 483.169 502.479C483.234 502.001 483.293 501.471 483.345 500.888C483.399 500.317 483.486 499.737 483.605 499.146C483.725 498.568 483.904 498.03 484.141 497.532C484.391 497.033 484.737 496.61 485.18 496.263C485.636 495.914 486.235 495.697 486.976 495.61C487.811 495.512 488.592 495.649 489.32 496.02C490.05 496.405 490.673 497.03 491.191 497.895C491.708 498.761 492.047 499.876 492.206 501.24C492.313 502.154 492.312 503.06 492.202 503.959C492.108 504.869 491.902 505.692 491.585 506.427L488.523 505.557C488.803 504.853 488.991 504.167 489.088 503.498C489.197 502.827 489.216 502.187 489.145 501.578C489.081 501.035 488.971 500.605 488.813 500.288C488.668 499.969 488.494 499.748 488.292 499.624C488.089 499.5 487.869 499.452 487.631 499.48C487.326 499.516 487.097 499.683 486.945 499.983C486.806 500.295 486.705 500.689 486.64 501.167C486.59 501.656 486.538 502.185 486.484 502.755C486.431 503.339 486.345 503.92 486.224 504.497C486.119 505.087 485.941 505.631 485.691 506.131C485.454 506.628 485.106 507.045 484.649 507.38C484.206 507.727 483.621 507.943 482.892 508.029C482.085 508.123 481.309 507.979 480.566 507.596C479.838 507.225 479.215 506.606 478.698 505.741C478.182 504.888 477.843 503.773 477.682 502.396ZM478.894 510.338L492.799 508.711L493.543 515.068C493.692 516.339 493.614 517.455 493.311 518.417C493.009 519.392 492.496 520.177 491.774 520.772C491.065 521.365 490.18 521.724 489.121 521.848C488.075 521.97 487.138 521.825 486.311 521.411C485.484 520.998 484.805 520.353 484.272 519.475C483.755 518.609 483.422 517.541 483.273 516.27L482.785 512.098L484.698 513.646L479.354 514.272L478.894 510.338ZM484.28 513.695L485.883 511.735L486.344 515.668C486.44 516.49 486.69 517.078 487.094 517.433C487.5 517.802 488.02 517.949 488.656 517.875C489.305 517.799 489.784 517.535 490.094 517.082C490.405 516.643 490.512 516.013 490.416 515.192L489.956 511.259L491.968 512.795L484.28 513.695ZM480.308 522.424L494.932 526.934L495.385 530.808L482.201 538.593L481.722 534.501L493.137 528.292L493.319 529.841L480.778 526.436L480.308 522.424ZM483.403 525.464L486.421 526.138L487.216 532.932L484.435 534.284L483.403 525.464ZM482.331 539.708L496.236 538.081L496.697 542.014L482.791 543.641L482.331 539.708ZM483.119 546.44L497.024 544.812L497.403 548.05L489.044 556.801L488.865 555.272L498.121 554.188L498.572 558.042L484.667 559.669L484.288 556.431L492.648 547.68L492.827 549.21L483.57 550.293L483.119 546.44Z" fill="#D50D33"/>
<path d="M359.953 331.919L361.653 327.811L369.857 324.546L373.798 326.41L365.595 329.72L362.623 330.859L359.953 331.919ZM355.427 333.207L361.414 320.552L364.957 322.228L358.971 334.884L355.427 333.207ZM363.925 337.227L362.274 330.052L365.787 328.66L368.083 339.194L363.925 337.227ZM369.022 339.638L375.009 326.983L378.588 328.676L372.602 341.332L369.022 339.638ZM375.149 342.536L381.135 329.881L384.082 331.275L387.075 343.001L385.683 342.342L389.669 333.917L393.176 335.576L387.189 348.232L384.242 346.838L381.249 335.112L382.641 335.77L378.656 344.195L375.149 342.536ZM395.922 352.673C394.922 352.2 394.068 351.604 393.361 350.886C392.659 350.155 392.134 349.347 391.787 348.46C391.451 347.578 391.297 346.657 391.324 345.696C391.356 344.724 391.601 343.755 392.057 342.791C392.513 341.827 393.104 341.029 393.83 340.399C394.561 339.757 395.38 339.289 396.286 338.995C397.192 338.701 398.147 338.599 399.151 338.691C400.173 338.776 401.196 339.061 402.221 339.545C403.414 340.11 404.387 340.813 405.139 341.656C405.891 342.498 406.397 343.438 406.658 344.476L403.405 345.46C403.194 344.784 402.889 344.213 402.491 343.744C402.111 343.269 401.614 342.887 400.999 342.596C400.457 342.339 399.923 342.19 399.397 342.148C398.871 342.105 398.374 342.173 397.907 342.35C397.446 342.515 397.019 342.778 396.627 343.138C396.253 343.492 395.935 343.947 395.673 344.501C395.422 345.032 395.275 345.56 395.233 346.085C395.203 346.617 395.268 347.119 395.427 347.593C395.592 348.055 395.849 348.478 396.197 348.865C396.563 349.244 397.012 349.56 397.542 349.81C398.072 350.061 398.63 350.222 399.217 350.293C399.808 350.351 400.463 350.292 401.181 350.116L401.999 353.578C401.031 353.754 400.005 353.756 398.921 353.583C397.838 353.409 396.838 353.106 395.922 352.673ZM399.057 351.611L401.315 346.838L404.479 348.335L401.999 353.578L399.057 351.611Z" fill="#D50D33"/>
<path d="M415.573 369.669L426.934 361.489L430.674 366.682C431.422 367.721 431.897 368.734 432.099 369.723C432.309 370.721 432.243 371.656 431.9 372.527C431.569 373.39 430.97 374.133 430.105 374.757C429.25 375.372 428.361 375.7 427.437 375.741C426.513 375.782 425.606 375.548 424.714 375.04C423.841 374.535 423.031 373.763 422.283 372.724L419.828 369.316L422.253 369.739L417.887 372.883L415.573 369.669ZM421.912 369.985L422.36 367.493L424.674 370.706C425.157 371.377 425.662 371.77 426.188 371.884C426.721 372.009 427.248 371.885 427.767 371.511C428.298 371.129 428.588 370.665 428.639 370.119C428.697 369.584 428.485 368.982 428.002 368.311L425.688 365.097L428.193 365.462L421.912 369.985ZM440.906 380.892L443.22 384.106L431.859 392.287L429.545 389.073L440.906 380.892ZM426.389 384.691L424.075 381.478L435.437 373.297L437.751 376.51L426.389 384.691ZM434.139 386.11L430.657 381.273L433.318 379.357L436.801 384.193L434.139 386.11ZM433.491 394.554L444.852 386.373L447.166 389.586L435.805 397.767L433.491 394.554ZM437.451 400.053L448.813 391.873L451.127 395.086L442.314 401.432L446.217 406.853L443.669 408.688L437.451 400.053ZM444.585 409.959L455.946 401.779L458.26 404.992L446.899 413.173L444.585 409.959ZM448.545 415.459L459.906 407.279L463.646 412.472C464.394 413.511 464.869 414.524 465.071 415.512C465.281 416.511 465.215 417.446 464.872 418.317C464.541 419.18 463.942 419.923 463.077 420.547C462.222 421.162 461.333 421.49 460.409 421.531C459.485 421.572 458.578 421.338 457.686 420.83C456.813 420.325 456.003 419.553 455.255 418.514L452.801 415.106L455.225 415.529L450.859 418.673L448.545 415.459ZM454.884 415.775L455.332 413.283L457.646 416.496C458.129 417.167 458.634 417.56 459.16 417.674C459.693 417.799 460.22 417.675 460.739 417.301C461.27 416.919 461.56 416.455 461.611 415.909C461.669 415.374 461.457 414.771 460.974 414.101L458.66 410.887L461.165 411.252L454.884 415.775ZM460.563 432.149L471.924 423.968L474.238 427.182L462.877 435.363L460.563 432.149ZM464.523 437.649L475.884 429.468L478.198 432.682L466.837 440.863L464.523 437.649Z" fill="#D50D33"/>
<path d="M303.711 308.537L406.678 355.622C406.678 355.622 471.673 442.767 474.457 455.235C477.242 467.702 493 641.739 493 641.739H1.31726e-05C1.31726e-05 641.739 12.4674 448.336 17.9733 416.567C23.4792 384.797 71.1971 357.837 71.1971 357.837C71.1971 357.837 148.786 333.662 166.253 318.473C183.783 303.284 191.694 302.082 191.694 302.082L198.402 281.577L303.711 308.6V308.537Z" fill="#201609"/>
<path d="M320.925 215.949C320.925 215.949 355.163 240.061 343.961 284.299C332.822 328.536 280.295 326.067 280.295 326.067C280.295 326.067 225.362 323.473 185.872 273.223C146.381 222.911 207.452 184.496 207.452 184.496L320.925 216.013V215.949Z" fill="#F8F6D8"/>
<path d="M181.568 164.497C181.758 171.269 182.707 177.661 183.72 182.85C185.175 190.381 186.821 195.444 186.821 195.444L200.491 216.519L210.427 231.834C222.388 281.007 264.346 301.828 300.04 296.069C323.266 292.335 328.455 270.438 329.025 254.427C329.341 245.82 328.266 238.859 327.886 237.403C326.81 233.226 324.468 212.911 324.658 207.912C324.785 202.975 324.532 196.077 323.962 192.09C323.393 188.166 323.962 183.989 323.962 183.989C326.304 177.218 326.62 169.244 326.43 167.219C326.304 166.016 325.228 164.561 324.405 161.713C323.899 159.941 323.582 157.726 323.646 154.625C323.836 146.65 321.557 135.765 321.557 135.765L242.323 110.957L216.818 115.893L211.629 116.906L194.542 120.197L187.96 133.677L186.947 135.765C185.618 138.423 184.542 141.271 183.783 144.182C183.34 145.764 183.024 147.41 182.707 148.992C182.707 153.549 183.973 165.51 183.973 165.51C183.973 165.51 183.087 165.13 181.758 164.371L181.568 164.497Z" fill="url(#paint0_linear_514_2)"/>
<path d="M181.568 164.498C182.897 165.257 183.783 165.637 183.783 165.637C183.783 165.637 182.581 153.676 182.517 149.119C181.631 154.182 181.378 159.435 181.568 164.498Z" fill="url(#paint1_linear_514_2)"/>
<path d="M277.7 174.813L253.778 161.333L237.956 170.256L253.588 166.776L277.7 180.445V174.813Z" fill="#22170B"/>
<path d="M297.446 180.445V174.623L314.596 161.333L320.925 165.7L315.229 165.257L297.446 180.445Z" fill="#22170B"/>
<path d="M298.521 154.814C298.521 154.814 291.813 159.561 292.193 170.889" stroke="#22170B" stroke-miterlimit="10"/>
<path d="M282.7 154.814C282.7 154.814 287.066 162.219 286.813 170.889" stroke="#22170B" stroke-miterlimit="10"/>
<path d="M274.472 192.279C274.472 192.279 267.7 184.685 263.017 184.495C258.334 184.305 253.081 184.369 245.993 190.191C245.993 190.191 249.031 196.077 257.005 196.266C264.979 196.456 265.675 193.418 269.156 193.735C272.637 194.051 275.738 195.444 274.409 192.343L274.472 192.279Z" fill="#FAF8D9"/>
<path d="M297.446 193.609C297.446 193.609 300.294 184.496 307.129 183.483C313.963 182.47 319.976 188.546 319.976 188.546C319.976 188.546 317.824 191.963 313.71 193.609C309.597 195.254 302.255 193.609 300.863 193.609C299.471 193.609 297.825 194.938 297.446 193.609Z" fill="#FAF8D9"/>
<path d="M295.357 182.281C295.357 182.281 293.964 186.901 295.357 194.305C296.749 201.71 297.888 203.798 298.521 209.874C299.154 215.949 302.951 220.063 303.394 222.215C303.837 224.366 305.103 233.543 293.458 234.492C293.458 234.492 290.357 234.556 288.648 232.783C286.94 231.011 282.953 232.53 282.636 233.416C282.32 234.366 282.003 235.758 282.003 235.758C282.003 235.758 277.953 235.948 276.434 233.037C274.915 230.125 274.915 226.708 276.877 222.848C278.839 218.987 286.813 197.723 285.231 189.496L295.293 182.218L295.357 182.281Z" fill="#21170A"/>
<path d="M319.976 198.166C319.976 198.166 317.318 206.9 312.634 207.596C307.951 208.292 302.319 202.912 302.319 202.912" stroke="#22170B" stroke-miterlimit="10"/>
<path d="M273.017 202.849C273.017 202.849 269.473 212.215 260.423 211.772C251.373 211.329 246.057 202.849 246.057 202.849" stroke="#22170B" stroke-miterlimit="10"/>
<path d="M178.531 215.506H188.467L178.531 262.021L215.996 248.541L209.541 297.019L242.007 281.577L235.995 313.41L259.348 291.323L260.423 322.46L276.625 296.069L284.725 326.004L292.193 296.892L303.711 323.093L306.432 294.424L324.343 313.536L323.203 279.425L344.847 280.311L328.962 253.224H346.176L327.76 237.403L336.05 232.656L325.861 224.366" stroke="#22170B" stroke-miterlimit="10"/>
<path d="M257.259 194.558C254.463 194.558 252.196 192.292 252.196 189.496C252.196 186.699 254.463 184.433 257.259 184.433C260.055 184.433 262.322 186.699 262.322 189.496C262.322 192.292 260.055 194.558 257.259 194.558Z" fill="#1F1408"/>
<path d="M306.939 193.546C304.142 193.546 301.876 191.279 301.876 188.483C301.876 185.687 304.142 183.42 306.939 183.42C309.735 183.42 312.001 185.687 312.001 188.483C312.001 191.279 309.735 193.546 306.939 193.546Z" fill="#1F1408"/>
<path d="M168.025 92.3509L170.24 107.16C170.24 107.16 168.088 111.653 168.847 118.868C169.607 126.146 170.999 134.12 170.999 134.12C170.999 134.12 166.696 145.068 170.05 153.106C172.455 158.738 178.277 162.662 181.505 164.434C182.834 165.193 183.72 165.573 183.72 165.573C183.72 165.573 182.517 153.612 182.454 149.055C182.454 148.739 182.454 148.423 182.454 148.169C182.454 147.157 182.897 145.765 183.53 144.246C184.289 141.334 185.365 138.487 186.694 135.829L187.707 133.74L194.288 120.26L211.376 116.969L216.565 115.957L242.07 111.02L321.304 135.829C321.304 135.829 323.646 146.714 323.392 154.688C323.329 157.789 323.709 160.004 324.152 161.776C327.063 158.928 333.012 151.144 333.012 151.144C334.594 143.803 336.239 135.892 330.67 133.234L325.418 117.349V113.742L320.861 108.109C320.861 108.109 294.281 18.9388 284.724 12.4836C275.105 6.02845 266.118 -3.46449 210.806 1.28198C210.806 1.28198 178.657 10.0155 169.354 25.5839C169.354 25.5839 163.405 54.126 168.025 92.2876V92.3509Z" fill="#201609"/>
<path d="M178.847 140.132L194.352 120.26L211.439 116.97L215.616 113.995C215.996 114.565 216.313 115.198 216.629 115.957C222.008 128.551 220.869 167.472 219.413 172.535C217.831 177.914 209.098 179.496 215.616 210.443C222.135 241.39 244.348 256.706 247.006 256.706C249.664 256.706 258.651 248.605 264.03 243.542C269.41 238.479 286.497 234.239 299.724 234.239C312.951 234.239 328.013 252.845 328.013 252.845L328.835 254.364C328.329 270.375 323.076 292.273 299.85 296.006C264.157 301.765 222.135 280.881 210.237 231.771L200.301 216.456L184.037 183.547C183.91 183.294 183.72 183.04 183.593 182.787C178.91 174.687 180.746 162.536 180.746 162.536L178.72 140.069L178.847 140.132ZM285.484 266.705H304.47L313.963 255.82L311.179 252.022L313.963 247.529L298.964 239.239L296.37 243.289L289.471 239.935L263.397 253.162L285.484 266.642V266.705Z" fill="#201609"/>
<path d="M206.567 205.634C206.567 205.634 201.314 183.547 188.467 183.547C175.62 183.547 182.835 208.925 188.467 215.506C194.099 222.088 196.441 223.734 196.631 225.379C196.821 227.025 202.833 233.416 206.63 232.594C210.427 231.771 211.44 226.961 210.554 223.924C209.668 220.886 206.63 205.634 206.63 205.634H206.567Z" fill="url(#paint2_linear_514_2)"/>
<path d="M308.141 251.958L310.419 248.351L300.926 243.352L297.445 247.655L289.534 244.427L268.587 253.604L286.813 263.097H302.255L310.419 255.186L308.141 251.958Z" fill="#E20E3B"/>
<path d="M355.023 336.267C355.805 334.321 358.017 333.378 359.963 334.16C361.908 334.942 362.852 337.154 362.07 339.099L359.662 345.089C358.88 347.034 356.668 347.978 354.722 347.196C352.777 346.413 351.833 344.202 352.616 342.256L355.023 336.267Z" stroke="#E20E3B" stroke-width="4" stroke-miterlimit="10"/>
<path d="M346.688 356.321C347.47 354.376 349.682 353.432 351.628 354.215C353.574 354.997 354.517 357.208 353.735 359.154L351.327 365.143C350.545 367.089 348.333 368.032 346.387 367.25C344.442 366.468 343.498 364.257 344.281 362.311L346.688 356.321Z" stroke="#E20E3B" stroke-width="4" stroke-miterlimit="10"/>
<path d="M338.335 375.726C339.117 373.78 341.329 372.837 343.275 373.619C345.22 374.401 346.164 376.613 345.382 378.558L342.974 384.548C342.192 386.493 339.98 387.437 338.034 386.655C336.089 385.872 335.145 383.661 335.928 381.715L338.335 375.726Z" stroke="#E20E3B" stroke-width="4" stroke-miterlimit="10"/>
<path d="M329.666 395.732C330.448 393.786 332.659 392.843 334.605 393.625C336.551 394.407 337.494 396.618 336.712 398.564L334.304 404.554C333.522 406.499 331.311 407.443 329.365 406.66C327.419 405.878 326.476 403.667 327.258 401.721L329.666 395.732Z" stroke="#E20E3B" stroke-width="4" stroke-miterlimit="10"/>
<path d="M321.518 415.052C322.235 413.081 324.414 412.065 326.384 412.782C328.355 413.5 329.371 415.679 328.654 417.649L326.446 423.715C325.729 425.686 323.55 426.702 321.579 425.985C319.609 425.267 318.593 423.088 319.31 421.118L321.518 415.052Z" stroke="#E20E3B" stroke-width="4" stroke-miterlimit="10"/>
<path d="M313.916 433.877C314.978 432.069 317.304 431.463 319.113 432.524C320.922 433.585 321.528 435.912 320.467 437.72L317.2 443.288C316.139 445.097 313.812 445.703 312.004 444.642C310.195 443.581 309.589 441.254 310.65 439.445L313.916 433.877Z" stroke="#E20E3B" stroke-width="4" stroke-miterlimit="10"/>
<path d="M221.531 366.942C223.019 368.419 223.027 370.823 221.55 372.311C220.072 373.8 217.668 373.808 216.18 372.33L211.599 367.782C210.111 366.304 210.103 363.9 211.58 362.412C213.058 360.924 215.462 360.915 216.95 362.393L221.531 366.942Z" stroke="#E20E3B" stroke-width="4" stroke-miterlimit="10"/>
<path d="M237.167 382.075C238.655 383.553 238.664 385.957 237.186 387.445C235.708 388.933 233.304 388.942 231.816 387.464L227.235 382.915C225.747 381.438 225.739 379.034 227.217 377.545C228.694 376.057 231.099 376.049 232.587 377.527L237.167 382.075Z" stroke="#E20E3B" stroke-width="4" stroke-miterlimit="10"/>
<path d="M252.455 396.591C253.943 398.069 253.952 400.473 252.474 401.961C250.996 403.449 248.592 403.457 247.104 401.98L242.524 397.431C241.035 395.953 241.027 393.549 242.505 392.061C243.983 390.573 246.387 390.565 247.875 392.042L252.455 396.591Z" stroke="#E20E3B" stroke-width="4" stroke-miterlimit="10"/>
<path d="M268.319 411.615C269.808 413.093 269.816 415.497 268.338 416.985C266.861 418.473 264.456 418.482 262.968 417.004L258.388 412.456C256.9 410.978 256.891 408.574 258.369 407.086C259.847 405.597 262.251 405.589 263.739 407.067L268.319 411.615Z" stroke="#E20E3B" stroke-width="4" stroke-miterlimit="10"/>
<path d="M284.312 427.216C285.747 428.745 285.672 431.148 284.143 432.583C282.614 434.019 280.211 433.943 278.776 432.415L274.357 427.709C272.921 426.18 272.997 423.777 274.525 422.342C276.054 420.906 278.457 420.982 279.893 422.51L284.312 427.216Z" stroke="#E20E3B" stroke-width="4" stroke-miterlimit="10"/>
<path d="M298.399 439.746C300.089 440.987 300.452 443.364 299.211 445.054C297.969 446.744 295.593 447.108 293.903 445.866L288.7 442.045C287.01 440.803 286.646 438.427 287.888 436.737C289.129 435.046 291.506 434.683 293.196 435.924L298.399 439.746Z" stroke="#E20E3B" stroke-width="4" stroke-miterlimit="10"/>
<path d="M175.535 322.274C177.023 323.751 177.032 326.155 175.554 327.644C174.076 329.132 171.672 329.14 170.184 327.662L165.604 323.114C164.116 321.636 164.107 319.232 165.585 317.744C167.063 316.256 169.467 316.247 170.955 317.725L175.535 322.274Z" stroke="#E20E3B" stroke-width="4" stroke-miterlimit="10"/>
<path d="M191.127 337.453C192.615 338.931 192.624 341.335 191.146 342.823C189.668 344.311 187.264 344.32 185.776 342.842L181.195 338.293C179.707 336.816 179.699 334.411 181.177 332.923C182.654 331.435 185.059 331.427 186.547 332.905L191.127 337.453Z" stroke="#E20E3B" stroke-width="4" stroke-miterlimit="10"/>
<path d="M206.46 351.923C207.948 353.401 207.957 355.805 206.479 357.293C205.001 358.781 202.597 358.789 201.109 357.312L196.528 352.763C195.04 351.285 195.032 348.881 196.51 347.393C197.987 345.905 200.392 345.897 201.88 347.374L206.46 351.923Z" stroke="#E20E3B" stroke-width="4" stroke-miterlimit="10"/>
<path d="M355.566 343.148L356.198 343.44C356.896 343.763 357.2 344.59 356.878 345.288L352.578 354.595C352.255 355.293 351.428 355.598 350.73 355.275L350.098 354.983C349.4 354.661 349.095 353.833 349.418 353.135L353.718 343.828C354.041 343.13 354.868 342.826 355.566 343.148Z" fill="#E20E3B"/>
<path d="M347.225 363.235L347.857 363.527C348.555 363.85 348.86 364.677 348.537 365.375L344.237 374.682C343.914 375.38 343.087 375.685 342.389 375.362L341.757 375.07C341.059 374.747 340.754 373.92 341.077 373.222L345.377 363.915C345.7 363.217 346.527 362.913 347.225 363.235Z" fill="#E20E3B"/>
<path d="M338.86 382.563L339.492 382.855C340.19 383.178 340.494 384.005 340.172 384.703L335.871 394.01C335.549 394.708 334.722 395.013 334.024 394.69L333.392 394.398C332.694 394.076 332.389 393.248 332.712 392.55L337.012 383.243C337.335 382.545 338.162 382.241 338.86 382.563Z" fill="#E20E3B"/>
<path d="M330.169 402.645L330.801 402.937C331.499 403.259 331.803 404.086 331.481 404.784L327.181 414.091C326.858 414.789 326.031 415.094 325.333 414.771L324.701 414.479C324.003 414.157 323.698 413.329 324.021 412.631L328.321 403.324C328.644 402.626 329.471 402.322 330.169 402.645Z" fill="#E20E3B"/>
<path d="M322.482 423.346L323.124 423.616C323.833 423.914 324.166 424.73 323.868 425.439L319.895 434.89C319.597 435.599 318.781 435.932 318.072 435.634L317.43 435.364C316.722 435.066 316.388 434.25 316.686 433.541L320.659 424.09C320.957 423.381 321.774 423.048 322.482 423.346Z" fill="#E20E3B"/>
<path d="M313.404 440.683L313.986 441.066C314.628 441.488 314.807 442.351 314.385 442.994L308.756 451.563C308.334 452.205 307.471 452.384 306.828 451.962L306.246 451.58C305.604 451.158 305.425 450.294 305.847 449.652L311.476 441.083C311.898 440.44 312.761 440.261 313.404 440.683Z" fill="#E20E3B"/>
<path d="M229.819 378.73L229.353 379.248C228.838 379.819 227.958 379.865 227.387 379.351L219.768 372.49C219.196 371.976 219.15 371.096 219.665 370.524L220.13 370.007C220.645 369.435 221.525 369.389 222.097 369.904L229.716 376.764C230.287 377.278 230.333 378.159 229.819 378.73Z" fill="#E20E3B"/>
<path d="M245.331 393.833L244.865 394.35C244.351 394.922 243.47 394.968 242.899 394.453L235.28 387.593C234.708 387.078 234.662 386.198 235.177 385.627L235.643 385.109C236.157 384.538 237.038 384.492 237.609 385.006L245.228 391.866C245.799 392.381 245.846 393.261 245.331 393.833Z" fill="#E20E3B"/>
<path d="M260.766 408.364L260.3 408.881C259.785 409.453 258.905 409.499 258.333 408.984L250.714 402.124C250.143 401.61 250.097 400.729 250.611 400.158L251.077 399.641C251.592 399.069 252.472 399.023 253.044 399.538L260.663 406.398C261.234 406.912 261.28 407.793 260.766 408.364Z" fill="#E20E3B"/>
<path d="M276.625 423.376L276.159 423.893C275.645 424.464 274.764 424.511 274.193 423.996L266.574 417.136C266.002 416.621 265.956 415.741 266.471 415.17L266.937 414.652C267.451 414.081 268.331 414.035 268.903 414.549L276.522 421.409C277.093 421.924 277.14 422.804 276.625 423.376Z" fill="#E20E3B"/>
<path d="M290.588 438.693L290.105 439.195C289.572 439.749 288.69 439.766 288.136 439.233L280.749 432.124C280.195 431.591 280.178 430.709 280.711 430.155L281.194 429.654C281.727 429.099 282.609 429.083 283.163 429.616L290.55 436.725C291.104 437.258 291.121 438.139 290.588 438.693Z" fill="#E20E3B"/>
<path d="M308.313 450.131L307.929 450.711C307.504 451.352 306.64 451.528 305.999 451.104L297.45 445.445C296.809 445.021 296.633 444.157 297.057 443.516L297.441 442.935C297.866 442.294 298.73 442.118 299.371 442.542L307.92 448.201C308.561 448.625 308.737 449.489 308.313 450.131Z" fill="#E20E3B"/>
<path d="M183.77 334.146L183.304 334.664C182.79 335.235 181.909 335.281 181.338 334.767L173.719 327.906C173.147 327.392 173.101 326.512 173.616 325.94L174.082 325.423C174.596 324.851 175.477 324.805 176.048 325.32L183.667 332.18C184.238 332.694 184.285 333.575 183.77 334.146Z" fill="#E20E3B"/>
<path d="M199.325 349.262L198.859 349.78C198.344 350.351 197.464 350.397 196.893 349.883L189.274 343.023C188.702 342.508 188.656 341.628 189.171 341.056L189.636 340.539C190.151 339.968 191.031 339.921 191.603 340.436L199.222 347.296C199.793 347.811 199.839 348.691 199.325 349.262Z" fill="#E20E3B"/>
<path d="M214.717 363.841L214.251 364.358C213.737 364.929 212.857 364.975 212.285 364.461L204.666 357.601C204.095 357.086 204.049 356.206 204.563 355.634L205.029 355.117C205.543 354.546 206.424 354.5 206.995 355.014L214.614 361.874C215.186 362.389 215.232 363.269 214.717 363.841Z" fill="#E20E3B"/>
<path d="M304.66 449.476H310.419V498.269H304.66V449.476Z" fill="#E20E3B"/>
<path d="M294.408 460.171H320.608V466.12H294.408V460.171Z" fill="#E20E3B"/>
<defs>
<linearGradient id="paint0_linear_514_2" x1="273.27" y1="275.628" x2="247.386" y2="130.512" gradientUnits="userSpaceOnUse">
<stop stop-color="#F8F6D8"/>
<stop offset="0.1" stop-color="#F6E4CC"/>
<stop offset="0.3" stop-color="#F1B8AE"/>
<stop offset="0.6" stop-color="#EA6F7D"/>
<stop offset="1" stop-color="#E10C3A"/>
</linearGradient>
<linearGradient id="paint1_linear_514_2" x1="182.897" y1="162.536" x2="180.999" y2="149.942" gradientUnits="userSpaceOnUse">
<stop stop-color="#F8F6D8"/>
<stop offset="0.3" stop-color="#F0A6A2"/>
<stop offset="0.5" stop-color="#E96475"/>
<stop offset="0.7" stop-color="#E43455"/>
<stop offset="0.9" stop-color="#E21741"/>
<stop offset="1" stop-color="#E10C3A"/>
</linearGradient>
<linearGradient id="paint2_linear_514_2" x1="201.441" y1="221.012" x2="190.366" y2="193.609" gradientUnits="userSpaceOnUse">
<stop stop-color="#F8F6D8"/>
<stop offset="0.1" stop-color="#F6E4CC"/>
<stop offset="0.3" stop-color="#F1B8AE"/>
<stop offset="0.6" stop-color="#EA6F7D"/>
<stop offset="1" stop-color="#E10C3A"/>
</linearGradient>
</defs>
</svg>
