<svg width="1332" height="594" viewBox="0 0 1332 594" fill="none" xmlns="http://www.w3.org/2000/svg">
<g clip-path="url(#clip0_430_583)">
<path d="M-292.096 149.884L-277.41 113.918H-165.62L-144.51 86.5763H-98.2523L-64.4766 149.884L-39.1448 118.138H28.223L36.2998 138.323L66.955 129.148L34.0971 -14.8993L47.6808 -38.7543L102.199 -31.9648L113.58 21.4337L210.135 42.9032L251.069 19.0482L261.165 -30.8638L385.071 -80.7758L407.833 -215.648L510.445 -246.109L540.733 -191.059L582.952 -192.894L679.507 -115.09V-80.7758L751.831 -96.0063L812.591 -12.5138L922.729 4.73523L955.036 40.7013L1112.72 76.8507L1072.88 149.884L1063.34 304.758L1033.05 335.219H995.053V367.515L943.655 451.007L903.822 481.468L930.438 509.911H977.798L1012.12 584.045L995.053 618.176L1033.05 669.556L979.817 718.918L1025.34 764.426L1015.8 844.248L1103.36 869.021L1091.97 937.283L998.724 1001.87L995.053 1030.5L892.441 1057.11L818.281 1011.42L692.907 994.351L592.131 1036.19L563.678 1093.07L575.059 1165.37L479.973 1176.75L375.526 1159.68L278.604 1096.93L253.823 1123.54L128.449 1100.78L20.1462 1055.09L-13.9966 994.351L25.8367 969.579L86.5963 639.095L46.763 506.241L-23.5419 424.4L-29.2324 352.284L-103.392 297.234L-249.692 245.854L-292.096 202.181V149.884Z" fill="#D50D33" stroke="#F8F6D8" stroke-miterlimit="10"/>
<path d="M-166.722 197.594L-129.826 206.035L-108.899 198.695L-61.907 230.074L-44.285 213.926L-33.8218 209.889L-28.4985 218.33L-4.45161 195.759H16.4746L21.0637 153.004L-7.75579 118.139" stroke="#F8F6D8" stroke-miterlimit="10"/>
<path d="M-53.8301 334.118L-13.6296 319.621L-0.413094 260.167L-20.4215 210.806" stroke="#F8F6D8" stroke-miterlimit="10"/>
<path d="M54.6562 132.818L77.2345 171.353L93.021 156.306L113.213 164.747V250.442H102.75L87.147 277.6L62.9165 272.462L38.1354 290.812L-8.30615 296.133" stroke="#F8F6D8" stroke-miterlimit="10"/>
<path d="M113.213 164.747L149.192 174.105L191.044 169.518L207.381 158.324L224.269 185.666L210.686 195.758L211.971 214.475L200.773 226.219L202.058 239.248L191.595 244.569L194.348 258.882L179.847 268.608L182.417 288.242L148.457 292.83L124.411 283.655L96.8761 283.104L87.1472 277.599" stroke="#F8F6D8" stroke-miterlimit="10"/>
<path d="M-23.5422 424.401L-0.41326 399.995L29.5077 424.401L49.1489 428.805L45.8448 403.849L57.0422 399.995V414.308H70.0752V399.995H81.2726L90.4508 384.948V367.332L73.3794 359.442L116.517 348.432V329.348H97.6098L94.3056 317.053H113.213L77.7849 275.582" stroke="#F8F6D8" stroke-miterlimit="10"/>
<path d="M132.854 169.885L147.906 151.719L140.38 122.909L116.517 118.138L105.32 109.881L123.125 88.9616L137.994 84.3741L134.873 48.5916L116.517 44.5546L113.58 21.4336" stroke="#F8F6D8" stroke-miterlimit="10"/>
<path d="M261.165 -30.8633L267.406 21.4342L276.034 45.2893V78.5028V95.5683L238.77 99.4218L217.11 113.918L181.131 108.597L141.298 126.213" stroke="#F8F6D8" stroke-miterlimit="10"/>
<path d="M384.704 -81.5098L418.296 -52.1498L425.271 -31.5977L415.726 -19.3032L425.271 16.1123L416.644 28.2233L384.704 20.6998L368.183 38.6828L319.722 25.6543L287.782 9.32277L267.039 20.6998" stroke="#F8F6D8" stroke-miterlimit="10"/>
<path d="M276.033 78.502L286.313 87.8604L281.173 108.596H296.776L314.031 132.818L334.774 181.262L313.113 201.08L317.519 221.815L276.033 203.649L263.918 174.105L233.63 190.804L224.269 185.666" stroke="#F8F6D8" stroke-miterlimit="10"/>
<path d="M182.417 288.242L202.425 308.427L246.664 319.621" stroke="#F8F6D8" stroke-miterlimit="10"/>
<path d="M317.519 221.816L322.659 241.818L311.462 282.371L292.738 299.62" stroke="#F8F6D8" stroke-miterlimit="10"/>
<path d="M81.2729 399.995L120.923 415.409L155.8 406.784H208.666L224.269 389.535" stroke="#F8F6D8" stroke-miterlimit="10"/>
<path d="M50.4999 519L87.147 523.857L155.8 521.288L147.907 465.32L120.923 415.408" stroke="#F8F6D8" stroke-miterlimit="10"/>
<path d="M566.432 -17.2852L576.344 13.5429L558.906 39.4164L567.717 78.5019L531.555 83.8234L483.828 67.8589H437.02L415.543 56.1149L425.639 39.4164L417.011 28.9569L415.543 56.1149L410.403 78.5019L386.173 88.0439L395.351 105.66L378.463 129.698L318.621 143.277" stroke="#F8F6D8" stroke-miterlimit="10"/>
<path d="M395.351 105.66L405.447 121.258V147.315L425.639 182.73L447.483 196.126L441.976 221.816L432.614 245.12L361.759 262.736L346.523 243.469L318.621 228.422" stroke="#F8F6D8" stroke-miterlimit="10"/>
<path d="M444.545 209.888L488.233 206.035L500.899 237.78H535.593L558.905 217.411V199.795L600.024 193.556L614.525 158.324L601.492 116.119L567.716 78.502" stroke="#F8F6D8" stroke-miterlimit="10"/>
<path d="M601.493 116.12L618.197 109.881L627.559 92.2652V44.3717L665.556 32.9947L668.677 -10.3113L688.502 -27.9274V-80.7754L676.937 -61.8749L624.071 -80.7754L576.344 -71.4169L558.906 -80.7754" stroke="#F8F6D8" stroke-miterlimit="10"/>
<path d="M372.037 397.608L361.391 415.408H346.705L337.894 423.298L322.659 467.338L299.163 437.978V423.298L285.395 415.408L283.009 422.931L252.537 428.803V411.004L224.269 389.534L242.625 352.1L246.663 319.621L279.521 311.73L292.738 299.619L322.659 312.281L341.749 324.025V342.558L349.092 347.88L345.237 371.918L350.927 376.322H359.371L367.448 390.085L372.037 397.608Z" fill="#201609"/>
<path d="M126.797 522.389L141.482 550.281L191.962 572.117L205.178 586.247L193.981 615.056L185.537 617.625L176.91 611.019L159.655 617.625L165.896 643.499L183.885 662.216L179.847 688.456L210.318 707.173L205.178 725.523L188.474 728.459L163.876 714.88L160.205 692.126L79.2537 679.832" stroke="#F8F6D8" stroke-miterlimit="10"/>
<path d="M210.318 707.174L226.105 709.926L242.075 673.96L267.223 656.344L272.363 641.114L294.941 615.974L318.988 589.367L306.322 571.751L305.588 559.823L280.44 567.897L264.653 559.823V572.301L238.771 566.613L223.535 565.695L201.691 582.577" stroke="#F8F6D8" stroke-miterlimit="10"/>
<path d="M238.77 566.613V553.951L228.123 548.997L235.65 525.509H222.066L214.173 493.213L223.534 476.147L216.375 440.548L208.666 406.784" stroke="#F8F6D8" stroke-miterlimit="10"/>
<path d="M322.659 467.339V486.79L359.005 523.857L322.659 536.518L306.506 544.776L305.588 559.823" stroke="#F8F6D8" stroke-miterlimit="10"/>
<path d="M427.842 634.874V619.277L413.707 608.634L399.756 611.203L384.704 591.935L391.68 582.944L379.932 555.052L372.038 549.73L377.912 523.857L367.633 518.719L359.005 523.857" stroke="#F8F6D8" stroke-miterlimit="10"/>
<path d="M377.911 523.857L390.577 518.719L417.928 513.581L461.249 518.719L468.225 497.983L452.622 453.576L460.148 434.859L445.83 403.297L419.03 400.545L423.068 385.681L407.282 375.038L367.448 390.085" stroke="#F8F6D8" stroke-miterlimit="10"/>
<path d="M423.069 385.681L439.406 375.038H460.699L457.028 354.67H470.795L457.028 326.411L470.795 319.621L463.453 313.199H430.228L420.132 319.621L410.403 299.62H398.655L393.515 254.846" stroke="#F8F6D8" stroke-miterlimit="10"/>
<path d="M470.795 319.621L487.499 327.144H495.393L517.42 343.109L539.815 334.668L553.766 331.365L546.791 308.427L535.042 299.619L559.089 292.83V275.581L575.243 262.736L543.853 231.357" stroke="#F8F6D8" stroke-miterlimit="10"/>
<path d="M665.923 26.2049L701.167 45.4724H718.606L729.987 52.6289H764.129L775.878 47.3074V33.3613L782.119 31.5263V-1.68718H799.741L812.59 -12.5137" stroke="#F8F6D8" stroke-miterlimit="10"/>
<path d="M770.554 139.241L747.425 147.315L749.812 167.133H719.891L700.433 158.142V143.278H671.797L652.339 161.812V170.987H626.64L614.525 158.325" stroke="#F8F6D8" stroke-miterlimit="10"/>
<path d="M600.024 193.557L620.95 209.705L623.703 231.358H638.572L654.542 265.489H692.54L698.964 273.746L697.312 281.453L701.902 287.325V300.537L694.743 303.29L678.589 341.091L680.608 366.781L666.474 371.735L651.054 352.101L639.306 359.441L612.139 333.751L591.396 343.109L571.204 336.87L568.084 326.227L553.766 331.365" stroke="#F8F6D8" stroke-miterlimit="10"/>
<path d="M539.815 334.668L547.708 355.587L543.853 368.432L553.766 380.176L555.602 393.755L560.925 413.206V457.43L536.878 465.32L529.535 470.642L523.111 465.32L514.3 474.128L508.976 490.093L510.812 495.965L485.48 503.672L475.384 516.884L461.25 518.719L475.384 516.884L480.524 532.848L494.475 535.601L499.615 546.794L503.653 560.006L511.179 584.228L502.368 602.762L487.499 614.139L492.088 625.516L496.678 629.553L497.779 647.536L498.513 658.546L504.204 674.51L518.522 679.098L524.396 687.355L538.53 685.704L547.892 693.227L554.867 703.687L562.944 698.549L569.185 690.108L576.344 690.842L594.15 683.502L613.24 681.483L623.336 693.227L658.397 691.209V682.584L669.778 673.776L665.005 655.059L646.833 642.214L643.161 627.351L635.085 620.378L640.959 600.927L634.35 594.137L623.704 582.944L608.651 584.595L581.3 576.888H571.572L565.514 569.365L549.36 565.144L547.892 550.281V544.409L528.434 549.914L512.464 565.511L503.653 560.006" stroke="#F8F6D8" stroke-miterlimit="10"/>
<path d="M560.925 457.43L569.186 467.339L582.953 471.926L593.416 468.99L603.879 467.339L609.753 480.551L623.704 460.366L634.718 477.431L642.06 500.002L651.422 503.121L654.543 508.259L669.779 510.645V527.343L658.765 539.454L644.814 547.161L650.321 589.183M650.321 589.183L634.351 594.137M650.321 589.183L1032.5 539.454L1234.5 612.5L1288 539.454L1112.5 425L1220.5 347.5L1307 390V188.5L1131 268L1161.5 106.5L1307 71L1269.5 -41.5L850 -13.4999L807.5 71L618 110" stroke="#F8F6D8" stroke-miterlimit="10"/>
<path d="M658.764 539.455V550.649L667.758 554.502L681.709 552.667L686.849 556.521H699.699L713.649 552.3L718.789 563.127L706.674 567.347L703.553 576.889L704.838 587.716L716.036 610.653L713.282 637.077L727.417 653.409L747.976 655.794V666.988L757.705 672.126V690.109L744.121 693.228L740.266 707.174L728.885 711.762L720.441 703.688L711.814 705.156L711.447 686.072L696.578 687.356L673.632 693.228L658.397 691.21" stroke="#F8F6D8" stroke-miterlimit="10"/>
<path d="M819.749 509.361L829.478 502.938L821.218 451.742L834.434 446.237L806.9 422.565L744.305 433.208L689.419 397.242V382.746H680.792L680.608 366.781" stroke="#F8F6D8" stroke-miterlimit="10"/>
<path d="M689.42 397.242L674.001 405.133L669.779 427.703L679.507 446.971L647.567 471.743L627.926 466.789" stroke="#F8F6D8" stroke-miterlimit="10"/>
<path d="M299.798 319.125L330.998 357.994L275.33 401.482L244.764 362.926L299.798 319.125Z" fill="url(#paint0_linear_430_583)"/>
<path d="M330.085 360.092L328.673 364.433L329.629 365.693L273.623 409.621L243.548 371.792C243.548 371.792 240.552 367.038 243.919 364.026L275.39 403.453L330.111 360.287L330.085 360.092Z" fill="url(#paint1_linear_430_583)"/>
<path d="M257.057 402.484C257.057 402.484 259.966 400.52 261.684 398.515L263.325 400.477C263.325 400.477 261.101 403.143 259.4 403.761L260.119 401.688L257.006 402.094L257.057 402.484Z" fill="url(#paint2_linear_430_583)"/>
<path d="M321.462 394.07L332.085 378.434L354.076 393.768L343.428 409.21L321.462 394.07Z" fill="url(#paint3_linear_430_583)"/>
<path d="M332.889 378.526L334.64 378.298C334.666 378.492 335.029 378.247 335.029 378.247L357.241 393.75L346.761 408.972C346.761 408.972 345.383 410.537 343.893 409.742L354.686 393.886L332.915 378.721L332.889 378.526Z" fill="url(#paint4_linear_430_583)"/>
<path d="M356.522 400.375C356.522 400.375 355.422 399.529 354.568 399.047L355.05 398.192C355.05 398.192 356.293 398.624 356.784 399.351L356.006 399.453L356.522 400.375Z" fill="url(#paint5_linear_430_583)"/>
<path d="M302.571 397.924L314.339 395.595L317.329 412.422L305.73 414.531L302.571 397.924Z" fill="url(#paint6_linear_430_583)"/>
<path d="M314.61 396.154L315.321 397.05L315.71 397L318.7 413.826L307.296 415.91C307.296 415.91 305.934 416.088 305.781 414.92L317.769 412.76L314.83 396.323L314.61 396.154Z" fill="url(#paint7_linear_430_583)"/>
<path d="M315.477 416.424C315.477 416.424 315.375 415.645 315.299 415.062L315.883 414.985C315.883 414.985 316.179 415.738 316.035 416.153L315.596 415.814L315.697 416.593L315.477 416.424Z" fill="url(#paint8_linear_430_583)"/>
</g>
<g clip-path="url(#clip1_430_583)">
<path d="M1624.1 149.884L1609.41 113.918H1497.62L1476.51 86.5763H1430.25L1396.48 149.884L1371.14 118.138H1303.78L1295.7 138.323L1265.05 129.148L1297.9 -14.8993L1284.32 -38.7543L1229.8 -31.9648L1218.42 21.4337L1121.87 42.9032L1080.93 19.0482L1070.83 -30.8638L946.929 -80.7758L924.167 -215.648L821.555 -246.109L791.267 -191.059L749.048 -192.894L652.493 -115.09V-80.7758L580.169 -96.0063L519.409 -12.5138L409.271 4.73522L376.964 40.7012L219.283 76.8507L259.116 149.884L268.661 304.758L298.949 335.219H336.947V367.515L388.345 451.007L428.178 481.468L401.562 509.911H354.202L319.876 584.045L336.947 618.176L298.949 669.556L352.183 718.918L306.659 764.426L316.205 844.248L228.645 869.021L240.026 937.283L333.276 1001.87L336.947 1030.5L439.559 1057.11L513.719 1011.42L639.093 994.351L739.87 1036.19L768.322 1093.07L756.941 1165.37L852.027 1176.75L956.475 1159.68L1053.4 1096.93L1078.18 1123.54L1203.55 1100.78L1311.85 1055.09L1346 994.351L1306.16 969.579L1245.4 639.095L1285.24 506.241L1355.54 424.4L1361.23 352.284L1435.39 297.234L1581.69 245.854L1624.1 202.181V149.884Z" fill="#D50D33" stroke="#F8F6D8" stroke-miterlimit="10"/>
<path d="M1498.72 197.594L1461.83 206.035L1440.9 198.695L1393.91 230.074L1376.29 213.926L1365.82 209.889L1360.5 218.33L1336.45 195.759H1315.53L1310.94 153.004L1339.76 118.139" stroke="#F8F6D8" stroke-miterlimit="10"/>
<path d="M1385.83 334.118L1345.63 319.621L1332.41 260.167L1352.42 210.806" stroke="#F8F6D8" stroke-miterlimit="10"/>
<path d="M1277.34 132.818L1254.77 171.353L1238.98 156.306L1218.79 164.747V250.442H1229.25L1244.85 277.6L1269.08 272.462L1293.86 290.812L1340.31 296.133" stroke="#F8F6D8" stroke-miterlimit="10"/>
<path d="M1218.79 164.747L1182.81 174.105L1140.96 169.518L1124.62 158.324L1107.73 185.666L1121.31 195.758L1120.03 214.475L1131.23 226.219L1129.94 239.248L1140.41 244.569L1137.65 258.882L1152.15 268.608L1149.58 288.242L1183.54 292.83L1207.59 283.655L1235.12 283.104L1244.85 277.599" stroke="#F8F6D8" stroke-miterlimit="10"/>
<path d="M1355.54 424.401L1332.41 399.995L1302.49 424.401L1282.85 428.805L1286.16 403.849L1274.96 399.995V414.308H1261.93V399.995H1250.73L1241.55 384.948V367.332L1258.62 359.442L1215.48 348.432V329.348H1234.39L1237.69 317.053H1218.79L1254.22 275.582" stroke="#F8F6D8" stroke-miterlimit="10"/>
<path d="M1199.15 169.885L1184.09 151.719L1191.62 122.909L1215.48 118.138L1226.68 109.881L1208.87 88.9616L1194.01 84.3741L1197.13 48.5916L1215.48 44.5546L1218.42 21.4336" stroke="#F8F6D8" stroke-miterlimit="10"/>
<path d="M1070.84 -30.8633L1064.59 21.4342L1055.97 45.2893V78.5028V95.5683L1093.23 99.4218L1114.89 113.918L1150.87 108.597L1190.7 126.213" stroke="#F8F6D8" stroke-miterlimit="10"/>
<path d="M947.297 -81.5098L913.705 -52.1498L906.729 -31.5977L916.274 -19.3032L906.729 16.1123L915.357 28.2233L947.297 20.6998L963.817 38.6828L1012.28 25.6543L1044.22 9.32277L1064.96 20.6998" stroke="#F8F6D8" stroke-miterlimit="10"/>
<path d="M1055.97 78.502L1045.69 87.8604L1050.83 108.596H1035.22L1017.97 132.818L997.226 181.262L1018.89 201.08L1014.48 221.815L1055.97 203.649L1068.08 174.105L1098.37 190.804L1107.73 185.666" stroke="#F8F6D8" stroke-miterlimit="10"/>
<path d="M1149.58 288.242L1129.58 308.427L1085.34 319.621" stroke="#F8F6D8" stroke-miterlimit="10"/>
<path d="M1014.48 221.816L1009.34 241.818L1020.54 282.371L1039.26 299.62" stroke="#F8F6D8" stroke-miterlimit="10"/>
<path d="M1250.73 399.995L1211.08 415.409L1176.2 406.784H1123.33L1107.73 389.535" stroke="#F8F6D8" stroke-miterlimit="10"/>
<path d="M1285.6 518.719L1244.85 523.857L1176.2 521.288L1184.09 465.32L1211.08 415.408" stroke="#F8F6D8" stroke-miterlimit="10"/>
<path d="M765.568 -17.2852L755.656 13.5429L773.094 39.4164L764.283 78.5019L800.445 83.8234L848.172 67.8589H894.981L916.457 56.1149L906.361 39.4164L914.989 28.9569L916.457 56.1149L921.597 78.5019L945.828 88.0439L936.65 105.66L953.537 129.698L1013.38 143.277" stroke="#F8F6D8" stroke-miterlimit="10"/>
<path d="M936.65 105.66L926.554 121.258V147.315L906.361 182.73L884.517 196.126L890.024 221.816L899.386 245.12L970.242 262.736L985.478 243.469L1013.38 228.422" stroke="#F8F6D8" stroke-miterlimit="10"/>
<path d="M887.455 209.888L843.767 206.035L831.101 237.78H796.408L773.095 217.411V199.795L731.977 193.556L717.475 158.324L730.508 116.119L764.284 78.502" stroke="#F8F6D8" stroke-miterlimit="10"/>
<path d="M730.507 116.12L713.803 109.881L704.441 92.2652V44.3717L666.444 32.9947L663.323 -10.3113L643.498 -27.9274V-80.7754L655.063 -61.8749L707.929 -80.7754L755.656 -71.4169L773.094 -80.7754" stroke="#F8F6D8" stroke-miterlimit="10"/>
<path d="M1078.96 428.198V411.004V410.756L1079.16 410.605L1107.1 389.385L1088.93 352.32L1088.89 352.245L1088.88 352.162L1084.88 320.026L1052.36 312.216L1052.24 312.186L1052.14 312.099L1039.16 300.205L1009.57 312.726L990.751 324.304V342.558V342.813L990.544 342.963L983.451 348.104L987.257 371.839L987.304 372.132L987.069 372.314L981.379 376.718L981.243 376.822H981.073H972.915L964.983 390.338L964.979 390.345L960.547 397.611L970.893 414.908H985.295H985.486L985.628 415.035L994.439 422.926L994.536 423.012L994.578 423.135L1009.52 466.318L1032.34 437.803V423.298V423.008L1032.59 422.864L1046.36 414.974L1046.89 414.666L1047.08 415.256L1049.38 422.496L1078.96 428.198Z" stroke="#F8F6D8"/>
<path d="M1205.2 522.389L1190.52 550.281L1140.04 572.117L1126.82 586.247L1138.02 615.056L1146.46 617.625L1155.09 611.019L1172.35 617.625L1166.1 643.499L1148.12 662.216L1152.15 688.456L1121.68 707.173L1126.82 725.523L1143.53 728.459L1168.12 714.88L1171.8 692.126L1252.75 679.832" stroke="#F8F6D8" stroke-miterlimit="10"/>
<path d="M1121.68 707.174L1105.9 709.926L1089.93 673.96L1064.78 656.344L1059.64 641.114L1037.06 615.974L1013.01 589.367L1025.68 571.751L1026.41 559.823L1051.56 567.897L1067.35 559.823V572.301L1093.23 566.613L1108.47 565.695L1130.31 582.577" stroke="#F8F6D8" stroke-miterlimit="10"/>
<path d="M1093.23 566.613V553.951L1103.88 548.997L1096.35 525.509H1109.93L1117.83 493.213L1108.47 476.147L1115.62 440.548L1123.33 406.784" stroke="#F8F6D8" stroke-miterlimit="10"/>
<path d="M1009.34 467.339V486.79L972.995 523.857L1009.34 536.518L1025.49 544.776L1026.41 559.823" stroke="#F8F6D8" stroke-miterlimit="10"/>
<path d="M904.159 634.874V619.277L918.293 608.634L932.244 611.203L947.296 591.935L940.321 582.944L952.069 555.052L959.962 549.73L954.088 523.857L964.367 518.719L972.995 523.857" stroke="#F8F6D8" stroke-miterlimit="10"/>
<path d="M954.089 523.857L941.423 518.719L914.072 513.581L870.751 518.719L863.775 497.983L879.378 453.576L871.852 434.859L886.17 403.297L912.97 400.545L908.932 385.681L924.718 375.038L964.552 390.085" stroke="#F8F6D8" stroke-miterlimit="10"/>
<path d="M908.932 385.681L892.594 375.038H871.301L874.972 354.67H861.205L874.972 326.411L861.205 319.621L868.548 313.199H901.773L911.869 319.621L921.597 299.62H933.346L938.485 254.846" stroke="#F8F6D8" stroke-miterlimit="10"/>
<path d="M861.205 319.621L844.501 327.144H836.607L814.58 343.109L792.185 334.668L778.234 331.365L785.209 308.427L796.958 299.619L772.911 292.83V275.581L756.757 262.736L788.147 231.357" stroke="#F8F6D8" stroke-miterlimit="10"/>
<path d="M666.077 26.2049L630.833 45.4724H613.394L602.013 52.6289H567.871L556.122 47.3074V33.3613L549.881 31.5263V-1.68718H532.259L519.41 -12.5137" stroke="#F8F6D8" stroke-miterlimit="10"/>
<path d="M561.446 139.241L584.575 147.315L582.189 167.133H612.109L631.567 158.142V143.278H660.203L679.661 161.812V170.987H705.36L717.475 158.325" stroke="#F8F6D8" stroke-miterlimit="10"/>
<path d="M731.976 193.557L711.05 209.705L708.297 231.358H693.428L677.458 265.489H639.46L633.036 273.746L634.688 281.453L630.098 287.325V300.537L637.257 303.29L653.411 341.091L651.392 366.781L665.526 371.735L680.946 352.101L692.694 359.441L719.861 333.751L740.604 343.109L760.796 336.87L763.916 326.227L778.234 331.365" stroke="#F8F6D8" stroke-miterlimit="10"/>
<path d="M792.185 334.668L784.292 355.587L788.147 368.432L778.234 380.176L776.399 393.755L771.075 413.206V457.43L795.122 465.32L802.465 470.642L808.89 465.32L817.701 474.128L823.024 490.093L821.188 495.965L846.52 503.672L856.616 516.884L870.75 518.719L856.616 516.884L851.476 532.848L837.525 535.601L832.386 546.794L828.347 560.006L820.821 584.228L829.632 602.762L844.501 614.139L839.912 625.516L835.323 629.553L834.221 647.536L833.487 658.546L827.797 674.51L813.479 679.098L807.605 687.355L793.47 685.704L784.108 693.227L777.133 703.687L769.056 698.549L762.815 690.108L755.656 690.842L737.85 683.502L718.76 681.483L708.664 693.227L673.603 691.209V682.584L662.222 673.776L666.995 655.059L685.168 642.214L688.839 627.351L696.916 620.378L691.042 600.927L697.65 594.137L708.297 582.944L723.349 584.595L750.7 576.888H760.429L766.486 569.365L782.64 565.144L784.108 550.281V544.409L803.566 549.914L819.536 565.511L828.347 560.006" stroke="#F8F6D8" stroke-miterlimit="10"/>
<path d="M771.075 457.43L762.815 467.339L749.047 471.926L738.584 468.99L728.121 467.339L722.247 480.551L708.296 460.366L697.282 477.431L689.94 500.002L680.578 503.121L677.457 508.259L662.222 510.645V527.343L673.235 539.454L687.186 547.161L681.679 589.183M681.679 589.183L697.649 594.137M681.679 589.183L299.5 539.454L97.5002 612.5L44.0002 539.454L219.5 425L111.5 347.5L25.0002 390V188.5L201 268L170.5 106.5L25.0002 71L62.5002 -41.5L482 -13.4999L524.5 71L714 110" stroke="#F8F6D8" stroke-miterlimit="10"/>
<path d="M673.236 539.455V550.649L664.242 554.502L650.291 552.667L645.151 556.521H632.302L618.351 552.3L613.211 563.127L625.326 567.347L628.447 576.889L627.162 587.716L615.965 610.653L618.718 637.077L604.584 653.409L584.024 655.794V666.988L574.296 672.126V690.109L587.879 693.228L591.734 707.174L603.115 711.762L611.559 703.688L620.187 705.156L620.554 686.072L635.422 687.356L658.368 693.228L673.604 691.21" stroke="#F8F6D8" stroke-miterlimit="10"/>
<path d="M642.58 397.242L658 405.133L662.222 427.703L652.493 446.971L684.433 471.743L704.074 466.789" stroke="#F8F6D8" stroke-miterlimit="10"/>
</g>
<defs>
<linearGradient id="paint0_linear_430_583" x1="290.547" y1="383.934" x2="284.322" y2="334.427" gradientUnits="userSpaceOnUse">
<stop stop-color="#F8F6D8"/>
<stop offset="0.3" stop-color="#F0A6A2"/>
<stop offset="0.5" stop-color="#E96475"/>
<stop offset="0.7" stop-color="#E43455"/>
<stop offset="0.9" stop-color="#E21741"/>
<stop offset="1" stop-color="#E10C3A"/>
</linearGradient>
<linearGradient id="paint1_linear_430_583" x1="290.19" y1="397.732" x2="286.242" y2="366.797" gradientUnits="userSpaceOnUse">
<stop stop-color="#F8F6D8"/>
<stop offset="0.3" stop-color="#F0A6A2"/>
<stop offset="0.5" stop-color="#E96475"/>
<stop offset="0.7" stop-color="#E43455"/>
<stop offset="0.9" stop-color="#E21741"/>
<stop offset="1" stop-color="#E10C3A"/>
</linearGradient>
<linearGradient id="paint2_linear_430_583" x1="260.316" y1="402.669" x2="259.924" y2="399.575" gradientUnits="userSpaceOnUse">
<stop stop-color="#F8F6D8"/>
<stop offset="0.3" stop-color="#F0A6A2"/>
<stop offset="0.5" stop-color="#E96475"/>
<stop offset="0.7" stop-color="#E43455"/>
<stop offset="0.9" stop-color="#E21741"/>
<stop offset="1" stop-color="#E10C3A"/>
</linearGradient>
<linearGradient id="paint3_linear_430_583" x1="338.866" y1="403.465" x2="336.337" y2="383.29" gradientUnits="userSpaceOnUse">
<stop stop-color="#F8F6D8"/>
<stop offset="0.3" stop-color="#F0A6A2"/>
<stop offset="0.5" stop-color="#E96475"/>
<stop offset="0.7" stop-color="#E43455"/>
<stop offset="0.9" stop-color="#E21741"/>
<stop offset="1" stop-color="#E10C3A"/>
</linearGradient>
<linearGradient id="paint4_linear_430_583" x1="347.188" y1="403.18" x2="344.654" y2="382.528" gradientUnits="userSpaceOnUse">
<stop stop-color="#F8F6D8"/>
<stop offset="0.3" stop-color="#F0A6A2"/>
<stop offset="0.5" stop-color="#E96475"/>
<stop offset="0.7" stop-color="#E43455"/>
<stop offset="0.9" stop-color="#E21741"/>
<stop offset="1" stop-color="#E10C3A"/>
</linearGradient>
<linearGradient id="paint5_linear_430_583" x1="355.771" y1="400.006" x2="355.586" y2="398.521" gradientUnits="userSpaceOnUse">
<stop stop-color="#F8F6D8"/>
<stop offset="0.3" stop-color="#F0A6A2"/>
<stop offset="0.5" stop-color="#E96475"/>
<stop offset="0.7" stop-color="#E43455"/>
<stop offset="0.9" stop-color="#E21741"/>
<stop offset="1" stop-color="#E10C3A"/>
</linearGradient>
<linearGradient id="paint6_linear_430_583" x1="310.573" y1="410.397" x2="309.2" y2="399.255" gradientUnits="userSpaceOnUse">
<stop stop-color="#F8F6D8"/>
<stop offset="0.3" stop-color="#F0A6A2"/>
<stop offset="0.5" stop-color="#E96475"/>
<stop offset="0.7" stop-color="#E43455"/>
<stop offset="0.9" stop-color="#E21741"/>
<stop offset="1" stop-color="#E10C3A"/>
</linearGradient>
<linearGradient id="paint7_linear_430_583" x1="311.821" y1="411.623" x2="310.375" y2="399.861" gradientUnits="userSpaceOnUse">
<stop stop-color="#F8F6D8"/>
<stop offset="0.3" stop-color="#F0A6A2"/>
<stop offset="0.5" stop-color="#E96475"/>
<stop offset="0.7" stop-color="#E43455"/>
<stop offset="0.9" stop-color="#E21741"/>
<stop offset="1" stop-color="#E10C3A"/>
</linearGradient>
<linearGradient id="paint8_linear_430_583" x1="315.795" y1="416.269" x2="315.677" y2="415.278" gradientUnits="userSpaceOnUse">
<stop stop-color="#F8F6D8"/>
<stop offset="0.3" stop-color="#F0A6A2"/>
<stop offset="0.5" stop-color="#E96475"/>
<stop offset="0.7" stop-color="#E43455"/>
<stop offset="0.9" stop-color="#E21741"/>
<stop offset="1" stop-color="#E10C3A"/>
</linearGradient>
<clipPath id="clip0_430_583">
<rect width="681" height="594" fill="white"/>
</clipPath>
<clipPath id="clip1_430_583">
<rect width="666" height="594" fill="white" transform="matrix(-1 0 0 1 1332 0)"/>
</clipPath>
</defs>
</svg>
