<svg width="412" height="359" viewBox="0 0 412 359" fill="none" xmlns="http://www.w3.org/2000/svg">
<g clip-path="url(#clip0_437_949)">
<path d="M-176.716 90.586L-167.831 68.849H-100.199L-87.4279 52.3244H-59.4421L-39.008 90.586L-23.6825 71.3998H17.0746L21.961 83.5991L40.5071 78.054L20.6283 -9.00508L28.8464 -23.4225L61.8296 -19.3191L68.715 12.9538L127.13 25.9294L151.895 11.512L158.003 -18.6537L232.965 -48.8193L246.736 -130.333L308.815 -148.743L327.139 -115.472L352.682 -116.581L411.097 -69.5583V-48.8193L454.852 -58.0243L491.611 -7.56334L558.244 2.86157L577.79 24.5986L673.186 46.4465L649.087 90.586L643.312 184.188L624.988 202.598H601.999V222.117L570.904 272.578L546.805 290.988L562.908 308.178H591.56L612.328 352.983L601.999 373.611L624.988 404.664L592.782 434.497L620.323 462.001L614.549 510.244L667.522 525.216L660.636 566.472L604.221 605.51L601.999 622.811L539.92 638.892L495.054 611.277L419.204 600.963L358.235 626.249L341.021 660.629L347.906 704.325L290.38 711.201L227.19 700.887L168.553 662.958L153.561 679.039L77.7104 665.287L12.1882 637.672L-8.46799 600.963L15.6309 585.991L52.39 386.254L28.2911 305.96L-14.2428 256.497L-17.6855 212.912L-62.5516 179.641L-151.062 148.588L-176.716 122.193V90.586Z" fill="#D50D33" stroke="#F8F6D8" stroke-miterlimit="10"/>
<path d="M-100.866 119.421L-78.5437 124.522L-65.8835 120.086L-37.4535 139.05L-26.7923 129.291L-20.4621 126.851L-17.2415 131.953L-2.69337 118.312H9.96685L12.7432 92.471L-4.69238 71.3994" stroke="#F8F6D8" stroke-miterlimit="10"/>
<path d="M-32.5669 201.933L-8.24593 193.172L-0.250012 157.239L-12.355 127.406" stroke="#F8F6D8" stroke-miterlimit="10"/>
<path d="M33.0663 80.2725L46.7261 103.562L56.2768 94.4681L68.4928 99.5697V151.361H62.1627L52.723 167.775L38.0638 164.67L23.0714 175.76L-5.02539 178.976" stroke="#F8F6D8" stroke-miterlimit="10"/>
<path d="M68.4929 99.5691L90.2596 105.225L115.58 102.453L125.464 95.6875L135.681 112.212L127.463 118.312L128.24 129.624L121.466 136.722L122.243 144.596L115.913 147.812L117.579 156.462L108.806 162.34L110.361 174.207L89.8154 176.98L75.2672 171.434L58.609 171.102L52.7231 167.775" stroke="#F8F6D8" stroke-miterlimit="10"/>
<path d="M-14.2432 256.497L-0.250304 241.747L17.8516 256.497L29.7345 259.159L27.7355 244.076L34.5098 241.747V250.398H42.3947V241.747H49.169L54.7218 232.653V222.006L44.3937 217.237L70.4915 210.583V199.049H59.0529L57.0539 191.619H68.4926L47.059 166.555" stroke="#F8F6D8" stroke-miterlimit="10"/>
<path d="M80.3755 102.675L89.482 91.6954L84.9287 74.2836L70.4916 71.4001L63.7173 66.4094L74.4896 53.7665L83.485 50.9939L81.5971 29.3678L70.4916 26.9279L68.7147 12.9541" stroke="#F8F6D8" stroke-miterlimit="10"/>
<path d="M158.003 -18.6533L161.778 12.9541L166.998 27.3715V47.445V57.759L144.454 60.088L131.349 68.8493L109.583 65.6332L85.4839 76.2799" stroke="#F8F6D8" stroke-miterlimit="10"/>
<path d="M232.743 -49.2627L253.066 -31.5182L257.286 -19.097L251.511 -11.6665L257.286 9.73784L252.066 17.0575L232.743 12.5104L222.748 23.3789L193.429 15.5048L174.106 5.63441L161.557 12.5104" stroke="#F8F6D8" stroke-miterlimit="10"/>
<path d="M166.998 47.4443L173.217 53.1004L170.108 65.6325H179.547L189.986 80.2717L202.536 109.55L189.431 121.528L192.096 134.06L166.998 123.08L159.668 105.225L141.344 115.317L135.681 112.212" stroke="#F8F6D8" stroke-miterlimit="10"/>
<path d="M110.36 174.207L122.465 186.406L149.229 193.171" stroke="#F8F6D8" stroke-miterlimit="10"/>
<path d="M192.097 134.061L195.206 146.149L188.432 170.659L177.104 181.084" stroke="#F8F6D8" stroke-miterlimit="10"/>
<path d="M49.1694 241.747L73.1572 251.063L94.2576 245.851H126.241L135.681 235.426" stroke="#F8F6D8" stroke-miterlimit="10"/>
<path d="M30.5518 313.672L52.723 316.607L94.2575 315.055L89.4821 281.229L73.1571 251.063" stroke="#F8F6D8" stroke-miterlimit="10"/>
<path d="M342.687 -10.4473L348.684 8.18448L338.134 23.8218L343.464 47.4442L321.587 50.6604L292.712 41.0118H264.393L251.4 33.914L257.508 23.8218L252.289 17.5004L251.4 33.914L248.291 47.4442L233.631 53.2112L239.184 63.8579L228.967 78.3862L192.763 86.5931" stroke="#F8F6D8" stroke-miterlimit="10"/>
<path d="M239.184 63.8584L245.292 73.2852V89.0334L257.508 110.438L270.724 118.534L267.392 134.06L261.728 148.145L218.861 158.792L209.643 147.147L192.763 138.053" stroke="#F8F6D8" stroke-miterlimit="10"/>
<path d="M268.946 126.851L295.377 124.522L303.04 143.708H324.029L338.133 131.398V120.751L363.01 116.981L371.783 95.6873L363.898 70.1795L343.464 47.4443" stroke="#F8F6D8" stroke-miterlimit="10"/>
<path d="M363.898 70.1799L374.004 66.4091L379.668 55.7625V26.8167L402.657 19.9407L404.544 -6.23248L416.538 -16.8792V-48.8193L409.542 -37.3963L377.558 -48.8193L348.684 -43.1633L338.134 -48.8193" stroke="#F8F6D8" stroke-miterlimit="10"/>
<path d="M225.08 240.305L218.638 251.063H209.754L204.424 255.832L195.206 282.449L180.991 264.704V255.832L172.662 251.063L171.218 255.61L152.783 259.159V248.401L135.681 235.426L146.786 212.801L149.229 193.171L169.108 188.403L177.104 181.083L195.206 188.735L206.756 195.833V207.034L211.198 210.251L208.866 224.779L212.308 227.441H217.417L222.303 235.758L225.08 240.305Z" fill="#201609"/>
<path d="M76.7109 315.72L85.5953 332.577L116.135 345.775L124.131 354.314L117.357 371.726L112.248 373.279L107.029 369.286L96.5897 373.279L100.366 388.916L111.249 400.228L108.806 416.087L127.241 427.399L124.131 438.49L114.025 440.264L99.1439 432.057L96.9228 418.305L47.9478 410.875" stroke="#F8F6D8" stroke-miterlimit="10"/>
<path d="M127.241 427.399L136.792 429.063L146.454 407.326L161.668 396.679L164.778 387.474L178.437 372.28L192.985 356.199L185.323 345.552L184.878 338.344L169.664 343.224L160.113 338.344V345.885L144.455 342.447L135.237 341.893L122.021 352.096" stroke="#F8F6D8" stroke-miterlimit="10"/>
<path d="M144.454 342.447V334.795L138.013 331.801L142.566 317.605H134.348L129.573 298.086L135.237 287.772L130.905 266.257L126.241 245.851" stroke="#F8F6D8" stroke-miterlimit="10"/>
<path d="M195.206 282.449V294.205L217.195 316.607L195.206 324.26L185.434 329.25L184.878 338.344" stroke="#F8F6D8" stroke-miterlimit="10"/>
<path d="M258.841 383.704V374.277L250.29 367.845L241.849 369.397L232.743 357.752L236.963 352.318L229.856 335.461L225.08 332.245L228.634 316.607L222.415 313.502L217.195 316.607" stroke="#F8F6D8" stroke-miterlimit="10"/>
<path d="M228.633 316.607L236.296 313.501L252.843 310.396L279.052 313.501L283.272 300.969L273.833 274.131L278.386 262.819L269.724 243.743L253.51 242.08L255.953 233.096L246.402 226.664L222.303 235.758" stroke="#F8F6D8" stroke-miterlimit="10"/>
<path d="M255.953 233.096L265.837 226.664H278.719L276.498 214.354H284.827L276.498 197.275L284.827 193.171L280.385 189.29H260.284L254.176 193.171L248.29 181.083H241.183L238.073 154.022" stroke="#F8F6D8" stroke-miterlimit="10"/>
<path d="M284.828 193.172L294.934 197.719H299.709L313.036 207.367L326.584 202.266L335.024 200.269L330.804 186.407L323.697 181.083L338.245 176.98V166.555L348.018 158.792L329.027 139.827" stroke="#F8F6D8" stroke-miterlimit="10"/>
<path d="M402.878 15.8371L424.201 27.482H434.751L441.637 31.8072H462.293L469.4 28.591V20.1623L473.176 19.0533V-1.02019H483.837L491.611 -7.56348" stroke="#F8F6D8" stroke-miterlimit="10"/>
<path d="M466.18 84.1533L452.187 89.0331L453.631 101.011H435.529L423.757 95.5764V86.5932H406.432L394.661 97.7944V103.34H379.113L371.783 95.6873" stroke="#F8F6D8" stroke-miterlimit="10"/>
<path d="M363.01 116.981L375.67 126.741L377.336 139.828H386.331L395.993 160.456H418.981L422.868 165.446L421.869 170.104L424.645 173.653V181.638L420.314 183.302L410.541 206.148L411.763 221.674L403.211 224.668L393.883 212.802L386.775 217.238L370.339 201.712L357.79 207.368L345.574 203.597L343.686 197.165L335.024 200.27" stroke="#F8F6D8" stroke-miterlimit="10"/>
<path d="M326.584 202.266L331.36 214.909L329.027 222.672L335.024 229.77L336.135 237.976L339.355 249.732V276.46L324.807 281.229L320.365 284.445L316.478 281.229L311.148 286.552L307.927 296.201L309.037 299.75L293.712 304.408L287.604 312.393L279.053 313.502L287.604 312.393L290.713 322.041L299.154 323.705L302.263 330.47L304.706 338.455L309.26 353.094L303.929 364.295L294.934 371.171L297.71 378.047L300.486 380.487L301.153 391.356L301.597 398.01L305.04 407.658L313.702 410.431L317.256 415.422L325.807 414.424L331.471 418.971L335.691 425.292L340.577 422.187L344.353 417.085L348.684 417.529L359.456 413.093L371.006 411.873L377.114 418.971L398.325 417.751V412.538L405.211 407.215L402.323 395.903L391.329 388.139L389.108 379.156L384.222 374.942L387.775 363.186L383.777 359.083L377.336 352.318L368.23 353.316L351.683 348.658H345.797L342.132 344.111L332.359 341.56L331.471 332.577V329.028L319.699 332.355L310.037 341.782L304.706 338.455" stroke="#F8F6D8" stroke-miterlimit="10"/>
<path d="M339.355 276.46L344.353 282.448L352.682 285.221L359.012 283.447L365.342 282.448L368.896 290.433L377.336 278.234L383.999 288.548L388.442 302.189L394.105 304.075L395.993 307.18L405.211 308.622V318.714L398.548 326.033L390.107 330.691L393.439 356.088M393.439 356.088L383.777 359.083M393.439 356.088L624.655 326.033L746.863 370.181L779.23 326.033L673.054 256.86L738.393 210.021L790.725 235.707V113.925L684.246 161.973L702.699 64.3658L790.725 42.9104L768.038 -25.082L514.244 -8.1594L488.531 42.9104L373.885 66.4812" stroke="#F8F6D8" stroke-miterlimit="10"/>
<path d="M398.547 326.034V332.799L403.989 335.128L412.429 334.019L415.539 336.348H423.312L431.753 333.797L434.862 340.341L427.533 342.891L425.645 348.658L426.422 355.202L433.196 369.065L431.531 385.035L440.082 394.905L452.52 396.347V403.112L458.406 406.217V417.086L450.188 418.971L447.856 427.4L440.97 430.172L435.862 425.293L430.642 426.18L430.42 414.646L421.425 415.422L407.543 418.971L398.325 417.751" stroke="#F8F6D8" stroke-miterlimit="10"/>
<path d="M495.942 307.846L501.828 303.964L496.831 273.022L504.827 269.695L488.168 255.388L450.299 261.821L417.093 240.084V231.322H411.874L411.763 221.674" stroke="#F8F6D8" stroke-miterlimit="10"/>
<path d="M417.094 240.084L407.765 244.853L405.211 258.494L411.097 270.139L391.773 285.111L379.891 282.116" stroke="#F8F6D8" stroke-miterlimit="10"/>
<path d="M181.372 192.87L200.249 216.366L166.577 242.648L148.083 219.341L181.372 192.87Z" fill="url(#paint0_linear_437_949)"/>
<path d="M199.696 217.632L198.842 220.255L199.421 221.017L165.542 247.566L147.346 224.698C147.346 224.698 145.533 221.824 147.569 220.003L166.611 243.838L199.712 217.75L199.696 217.632Z" fill="url(#paint1_linear_437_949)"/>
<path d="M155.518 243.251C155.518 243.251 157.278 242.065 158.316 240.853L159.31 242.039C159.31 242.039 157.964 243.65 156.935 244.024L157.37 242.771L155.487 243.016L155.518 243.251Z" fill="url(#paint2_linear_437_949)"/>
<path d="M194.484 238.164L200.908 228.714L214.212 237.986L207.773 247.319L194.484 238.164Z" fill="url(#paint3_linear_437_949)"/>
<path d="M201.396 228.77L202.455 228.631C202.471 228.749 202.691 228.601 202.691 228.601L216.127 237.975L209.79 247.174C209.79 247.174 208.957 248.12 208.056 247.639L214.581 238.056L201.411 228.887L201.396 228.77Z" fill="url(#paint4_linear_437_949)"/>
<path d="M215.694 241.977C215.694 241.977 215.028 241.465 214.511 241.174L214.803 240.657C214.803 240.657 215.555 240.918 215.852 241.358L215.381 241.419L215.694 241.977Z" fill="url(#paint5_linear_437_949)"/>
<path d="M183.054 240.494L190.171 239.088L191.982 249.259L184.967 250.532L183.054 240.494Z" fill="url(#paint6_linear_437_949)"/>
<path d="M190.335 239.426L190.765 239.968L191.001 239.937L192.811 250.108L185.914 251.366C185.914 251.366 185.09 251.473 184.998 250.768L192.248 249.464L190.468 239.528L190.335 239.426Z" fill="url(#paint7_linear_437_949)"/>
<path d="M190.862 251.677C190.862 251.677 190.8 251.206 190.754 250.854L191.107 250.807C191.107 250.807 191.286 251.263 191.199 251.513L190.933 251.309L190.995 251.779L190.862 251.677Z" fill="url(#paint8_linear_437_949)"/>
</g>
<defs>
<linearGradient id="paint0_linear_437_949" x1="175.781" y1="232.042" x2="172.024" y2="202.116" gradientUnits="userSpaceOnUse">
<stop stop-color="#F8F6D8"/>
<stop offset="0.3" stop-color="#F0A6A2"/>
<stop offset="0.5" stop-color="#E96475"/>
<stop offset="0.7" stop-color="#E43455"/>
<stop offset="0.9" stop-color="#E21741"/>
<stop offset="1" stop-color="#E10C3A"/>
</linearGradient>
<linearGradient id="paint1_linear_437_949" x1="175.564" y1="240.381" x2="173.181" y2="221.68" gradientUnits="userSpaceOnUse">
<stop stop-color="#F8F6D8"/>
<stop offset="0.3" stop-color="#F0A6A2"/>
<stop offset="0.5" stop-color="#E96475"/>
<stop offset="0.7" stop-color="#E43455"/>
<stop offset="0.9" stop-color="#E21741"/>
<stop offset="1" stop-color="#E10C3A"/>
</linearGradient>
<linearGradient id="paint2_linear_437_949" x1="157.489" y1="243.363" x2="157.253" y2="241.493" gradientUnits="userSpaceOnUse">
<stop stop-color="#F8F6D8"/>
<stop offset="0.3" stop-color="#F0A6A2"/>
<stop offset="0.5" stop-color="#E96475"/>
<stop offset="0.7" stop-color="#E43455"/>
<stop offset="0.9" stop-color="#E21741"/>
<stop offset="1" stop-color="#E10C3A"/>
</linearGradient>
<linearGradient id="paint3_linear_437_949" x1="205.013" y1="243.846" x2="203.488" y2="231.649" gradientUnits="userSpaceOnUse">
<stop stop-color="#F8F6D8"/>
<stop offset="0.3" stop-color="#F0A6A2"/>
<stop offset="0.5" stop-color="#E96475"/>
<stop offset="0.7" stop-color="#E43455"/>
<stop offset="0.9" stop-color="#E21741"/>
<stop offset="1" stop-color="#E10C3A"/>
</linearGradient>
<linearGradient id="paint4_linear_437_949" x1="210.048" y1="243.673" x2="208.519" y2="231.189" gradientUnits="userSpaceOnUse">
<stop stop-color="#F8F6D8"/>
<stop offset="0.3" stop-color="#F0A6A2"/>
<stop offset="0.5" stop-color="#E96475"/>
<stop offset="0.7" stop-color="#E43455"/>
<stop offset="0.9" stop-color="#E21741"/>
<stop offset="1" stop-color="#E10C3A"/>
</linearGradient>
<linearGradient id="paint5_linear_437_949" x1="215.24" y1="241.754" x2="215.128" y2="240.856" gradientUnits="userSpaceOnUse">
<stop stop-color="#F8F6D8"/>
<stop offset="0.3" stop-color="#F0A6A2"/>
<stop offset="0.5" stop-color="#E96475"/>
<stop offset="0.7" stop-color="#E43455"/>
<stop offset="0.9" stop-color="#E21741"/>
<stop offset="1" stop-color="#E10C3A"/>
</linearGradient>
<linearGradient id="paint6_linear_437_949" x1="187.895" y1="248.034" x2="187.068" y2="241.299" gradientUnits="userSpaceOnUse">
<stop stop-color="#F8F6D8"/>
<stop offset="0.3" stop-color="#F0A6A2"/>
<stop offset="0.5" stop-color="#E96475"/>
<stop offset="0.7" stop-color="#E43455"/>
<stop offset="0.9" stop-color="#E21741"/>
<stop offset="1" stop-color="#E10C3A"/>
</linearGradient>
<linearGradient id="paint7_linear_437_949" x1="188.65" y1="248.776" x2="187.778" y2="241.666" gradientUnits="userSpaceOnUse">
<stop stop-color="#F8F6D8"/>
<stop offset="0.3" stop-color="#F0A6A2"/>
<stop offset="0.5" stop-color="#E96475"/>
<stop offset="0.7" stop-color="#E43455"/>
<stop offset="0.9" stop-color="#E21741"/>
<stop offset="1" stop-color="#E10C3A"/>
</linearGradient>
<linearGradient id="paint8_linear_437_949" x1="191.054" y1="251.583" x2="190.983" y2="250.984" gradientUnits="userSpaceOnUse">
<stop stop-color="#F8F6D8"/>
<stop offset="0.3" stop-color="#F0A6A2"/>
<stop offset="0.5" stop-color="#E96475"/>
<stop offset="0.7" stop-color="#E43455"/>
<stop offset="0.9" stop-color="#E21741"/>
<stop offset="1" stop-color="#E10C3A"/>
</linearGradient>
<clipPath id="clip0_437_949">
<rect width="412" height="359" fill="white"/>
</clipPath>
</defs>
</svg>
