<svg width="412" height="359" viewBox="0 0 412 359" fill="none" xmlns="http://www.w3.org/2000/svg">
<g clip-path="url(#clip0_437_760)">
<path d="M-176.716 90.586L-167.831 68.849H-100.199L-87.4279 52.3244H-59.4421L-39.008 90.586L-23.6825 71.3997H17.0746L21.961 83.5991L40.5071 78.0539L20.6283 -9.00508L28.8464 -23.4225L61.8296 -19.3191L68.715 12.9538L127.13 25.9294L151.895 11.512L158.003 -18.6537L232.965 -48.8194L246.736 -130.333L308.815 -148.743L327.139 -115.472L352.682 -116.581L411.097 -69.5583V-48.8194L454.852 -58.0243L491.611 -7.56334L558.244 2.86156L577.79 24.5986L673.186 46.4465L649.087 90.586L643.312 184.188L624.988 202.598H601.999V222.117L570.904 272.578L546.805 290.988L562.908 308.178H591.56L612.328 352.983L601.999 373.611L624.988 404.664L592.782 434.497L620.323 462.001L614.549 510.244L667.522 525.216L660.636 566.472L604.221 605.51L601.999 622.811L539.92 638.892L495.054 611.277L419.204 600.963L358.235 626.249L341.021 660.629L347.906 704.325L290.38 711.201L227.19 700.887L168.553 662.958L153.561 679.039L77.7104 665.287L12.1882 637.672L-8.46799 600.963L15.6309 585.991L52.39 386.254L28.2911 305.96L-14.2428 256.497L-17.6855 212.912L-62.5516 179.641L-151.062 148.588L-176.716 122.193V90.586Z" fill="#F8F6D8" stroke="#D50D33" stroke-miterlimit="10"/>
<path d="M-100.866 119.421L-78.5437 124.522L-65.8835 120.086L-37.4535 139.05L-26.7923 129.291L-20.4621 126.851L-17.2415 131.953L-2.69337 118.312H9.96685L12.7432 92.471L-4.69238 71.3994" stroke="#D50D33" stroke-miterlimit="10"/>
<path d="M-32.5669 201.933L-8.24593 193.172L-0.250012 157.239L-12.355 127.406" stroke="#D50D33" stroke-miterlimit="10"/>
<path d="M33.0663 80.2725L46.7261 103.562L56.2768 94.4681L68.4928 99.5697V151.361H62.1627L52.723 167.775L38.0638 164.67L23.0714 175.76L-5.02539 178.976" stroke="#D50D33" stroke-miterlimit="10"/>
<path d="M68.4929 99.5691L90.2596 105.225L115.58 102.453L125.464 95.6875L135.681 112.212L127.463 118.312L128.24 129.624L121.466 136.722L122.243 144.596L115.913 147.812L117.579 156.462L108.806 162.34L110.361 174.207L89.8154 176.98L75.2672 171.434L58.609 171.102L52.7231 167.775" stroke="#D50D33" stroke-miterlimit="10"/>
<path d="M-14.2432 256.497L-0.250304 241.747L17.8516 256.497L29.7345 259.159L27.7355 244.076L34.5098 241.747V250.398H42.3947V241.747H49.169L54.7218 232.653V222.006L44.3937 217.237L70.4915 210.583V199.049H59.0529L57.0539 191.619H68.4926L47.059 166.555" stroke="#D50D33" stroke-miterlimit="10"/>
<path d="M80.376 102.675L89.4825 91.6954L84.9292 74.2836L70.4921 71.4001L63.7178 66.4094L74.4901 53.7665L83.4855 50.9939L81.5976 29.3678L70.4921 26.9279L68.7152 12.9541" stroke="#D50D33" stroke-miterlimit="10"/>
<path d="M158.003 -18.6533L161.779 12.9541L166.998 27.3715V47.445V57.759L144.454 60.088L131.35 68.8493L109.583 65.6332L85.4844 76.2799" stroke="#D50D33" stroke-miterlimit="10"/>
<path d="M232.743 -49.2627L253.066 -31.5182L257.286 -19.097L251.511 -11.6665L257.286 9.73784L252.066 17.0575L232.743 12.5104L222.748 23.3789L193.429 15.5048L174.106 5.63441L161.557 12.5104" stroke="#D50D33" stroke-miterlimit="10"/>
<path d="M166.998 47.4443L173.217 53.1004L170.108 65.6325H179.547L189.986 80.2717L202.536 109.55L189.431 121.528L192.096 134.06L166.998 123.08L159.668 105.225L141.344 115.317L135.681 112.212" stroke="#D50D33" stroke-miterlimit="10"/>
<path d="M110.36 174.207L122.465 186.406L149.229 193.171" stroke="#D50D33" stroke-miterlimit="10"/>
<path d="M192.097 134.061L195.206 146.149L188.432 170.659L177.104 181.084" stroke="#D50D33" stroke-miterlimit="10"/>
<path d="M49.1694 241.747L73.1572 251.063L94.2576 245.851H126.241L135.681 235.426" stroke="#D50D33" stroke-miterlimit="10"/>
<path d="M30.8545 313.974L52.7233 316.607L94.2577 315.055L89.4824 281.229L73.1573 251.063" stroke="#D50D33" stroke-miterlimit="10"/>
<path d="M342.687 -10.4473L348.684 8.18448L338.134 23.8218L343.464 47.4442L321.587 50.6604L292.712 41.0118H264.393L251.4 33.914L257.508 23.8218L252.289 17.5004L251.4 33.914L248.291 47.4442L233.631 53.2112L239.184 63.8579L228.967 78.3862L192.763 86.5931" stroke="#D50D33" stroke-miterlimit="10"/>
<path d="M239.184 63.8584L245.292 73.2852V89.0334L257.508 110.438L270.724 118.534L267.392 134.06L261.728 148.145L218.861 158.792L209.643 147.147L192.763 138.053" stroke="#D50D33" stroke-miterlimit="10"/>
<path d="M268.946 126.851L295.377 124.522L303.04 143.708H324.029L338.133 131.398V120.751L363.01 116.981L371.783 95.6873L363.898 70.1795L343.464 47.4443" stroke="#D50D33" stroke-miterlimit="10"/>
<path d="M363.898 70.1799L374.004 66.4091L379.668 55.7624V26.8167L402.657 19.9407L404.544 -6.23248L416.538 -16.8792V-48.8193L409.542 -37.3963L377.558 -48.8193L348.684 -43.1633L338.134 -48.8193" stroke="#D50D33" stroke-miterlimit="10"/>
<path d="M225.08 240.305L218.638 251.063H209.754L204.424 255.832L195.206 282.449L180.991 264.704V255.832L172.662 251.063L171.218 255.61L152.783 259.159V248.401L135.681 235.426L146.786 212.801L149.229 193.171L169.108 188.403L177.104 181.083L195.206 188.735L206.756 195.833V207.034L211.198 210.251L208.866 224.779L212.308 227.441H217.417L222.303 235.758L225.08 240.305Z" fill="#201609"/>
<path d="M76.7109 315.72L85.5953 332.577L116.135 345.775L124.131 354.314L117.357 371.726L112.248 373.279L107.029 369.286L96.5897 373.279L100.366 388.916L111.249 400.228L108.806 416.087L127.241 427.399L124.131 438.49L114.025 440.264L99.1439 432.057L96.9228 418.305L47.9478 410.875" stroke="#D50D33" stroke-miterlimit="10"/>
<path d="M127.241 427.399L136.792 429.063L146.454 407.326L161.668 396.679L164.778 387.474L178.437 372.28L192.985 356.199L185.323 345.552L184.878 338.344L169.664 343.224L160.113 338.344V345.885L144.455 342.447L135.237 341.893L122.021 352.096" stroke="#D50D33" stroke-miterlimit="10"/>
<path d="M144.454 342.447V334.795L138.013 331.801L142.566 317.605H134.348L129.573 298.086L135.237 287.772L130.905 266.257L126.241 245.851" stroke="#D50D33" stroke-miterlimit="10"/>
<path d="M195.206 282.449V294.205L217.195 316.607L195.206 324.26L185.434 329.25L184.878 338.344" stroke="#D50D33" stroke-miterlimit="10"/>
<path d="M258.841 383.704V374.277L250.29 367.845L241.849 369.397L232.743 357.752L236.963 352.318L229.856 335.461L225.08 332.245L228.634 316.607L222.415 313.502L217.195 316.607" stroke="#D50D33" stroke-miterlimit="10"/>
<path d="M228.633 316.607L236.296 313.501L252.843 310.396L279.052 313.501L283.272 300.969L273.833 274.131L278.386 262.819L269.724 243.743L253.51 242.08L255.953 233.096L246.402 226.664L222.303 235.758" stroke="#D50D33" stroke-miterlimit="10"/>
<path d="M255.953 233.096L265.837 226.664H278.719L276.498 214.354H284.827L276.498 197.275L284.827 193.171L280.385 189.29H260.284L254.176 193.171L248.29 181.083H241.183L238.073 154.022" stroke="#D50D33" stroke-miterlimit="10"/>
<path d="M284.828 193.172L294.934 197.719H299.709L313.036 207.367L326.584 202.266L335.024 200.269L330.804 186.407L323.697 181.083L338.245 176.98V166.555L348.018 158.792L329.027 139.827" stroke="#D50D33" stroke-miterlimit="10"/>
<path d="M402.878 15.8371L424.2 27.482H434.751L441.636 31.8072H462.292L469.4 28.591V20.1623L473.176 19.0533V-1.02019H483.837L491.611 -7.56348" stroke="#D50D33" stroke-miterlimit="10"/>
<path d="M466.18 84.1533L452.187 89.0331L453.631 101.011H435.529L423.757 95.5764V86.5932H406.432L394.661 97.7944V103.34H379.113L371.783 95.6873" stroke="#D50D33" stroke-miterlimit="10"/>
<path d="M363.01 116.981L375.67 126.741L377.336 139.828H386.331L395.993 160.456H418.981L422.868 165.446L421.869 170.104L424.645 173.653V181.638L420.314 183.302L410.541 206.148L411.763 221.674L403.211 224.668L393.883 212.802L386.775 217.238L370.339 201.712L357.79 207.368L345.574 203.597L343.686 197.165L335.024 200.27" stroke="#D50D33" stroke-miterlimit="10"/>
<path d="M326.584 202.266L331.36 214.909L329.027 222.672L335.024 229.77L336.135 237.976L339.355 249.732V276.46L324.807 281.229L320.365 284.445L316.478 281.229L311.148 286.552L307.927 296.201L309.037 299.75L293.712 304.408L287.604 312.393L279.053 313.502L287.604 312.393L290.713 322.041L299.154 323.705L302.263 330.47L304.706 338.455L309.26 353.094L303.929 364.295L294.934 371.171L297.71 378.047L300.486 380.487L301.153 391.356L301.597 398.01L305.04 407.658L313.702 410.431L317.256 415.422L325.807 414.424L331.471 418.971L335.691 425.292L340.577 422.187L344.353 417.085L348.684 417.529L359.456 413.093L371.006 411.873L377.114 418.971L398.325 417.751V412.538L405.211 407.215L402.323 395.903L391.329 388.139L389.108 379.156L384.222 374.942L387.775 363.186L383.777 359.083L377.336 352.318L368.23 353.316L351.683 348.658H345.797L342.132 344.111L332.359 341.56L331.471 332.577V329.028L319.699 332.355L310.037 341.782L304.706 338.455" stroke="#D50D33" stroke-miterlimit="10"/>
<path d="M339.355 276.46L344.353 282.448L352.682 285.221L359.012 283.447L365.342 282.448L368.896 290.433L377.336 278.234L383.999 288.548L388.442 302.189L394.105 304.075L395.993 307.18L405.211 308.622V318.714L398.548 326.033L390.107 330.691L393.439 356.088M393.439 356.088L383.777 359.083M393.439 356.088L624.655 326.033L746.863 370.181L779.23 326.033L673.054 256.86L738.393 210.021L790.725 235.707V113.925L684.246 161.973L702.699 64.3658L790.725 42.9104L768.038 -25.082L514.244 -8.1594L488.531 42.9104L373.885 66.4812" stroke="#D50D33" stroke-miterlimit="10"/>
<path d="M398.547 326.034V332.799L403.989 335.128L412.429 334.019L415.539 336.348H423.312L431.753 333.797L434.862 340.341L427.533 342.891L425.645 348.658L426.422 355.202L433.196 369.065L431.531 385.035L440.082 394.905L452.52 396.347V403.112L458.406 406.217V417.086L450.188 418.971L447.856 427.4L440.97 430.172L435.862 425.293L430.642 426.18L430.42 414.646L421.425 415.422L407.543 418.971L398.325 417.751" stroke="#D50D33" stroke-miterlimit="10"/>
<path d="M495.942 307.846L501.828 303.964L496.831 273.022L504.826 269.695L488.168 255.388L450.299 261.821L417.093 240.084V231.322H411.874L411.763 221.674" stroke="#D50D33" stroke-miterlimit="10"/>
<path d="M417.094 240.084L407.765 244.853L405.211 258.494L411.097 270.139L391.773 285.111L379.891 282.116" stroke="#D50D33" stroke-miterlimit="10"/>
<path d="M181.21 215.417L167.704 228.905L189.22 250.392L202.727 236.904L181.21 215.417Z" fill="url(#paint0_linear_437_760)"/>
<path d="M205.756 239.418L206.755 240.416C206.755 240.416 206.755 240.416 206.755 240.527C207.089 241.636 206.755 242.856 205.978 243.632L196.427 253.17C195.539 254.057 194.317 254.279 193.318 253.946L192.318 252.948L205.867 239.418H205.756Z" fill="url(#paint1_linear_437_760)"/>
<path d="M202.647 236.867L202.536 239.085L204.423 240.86L193.207 252.061L191.43 250.286L189.209 250.397" fill="url(#paint2_linear_437_760)"/>
<path d="M167.331 227.107C167.331 227.107 153.893 213.466 159.668 207.699C165.443 201.932 179.547 215.019 179.547 215.019L167.331 227.218V227.107Z" fill="url(#paint3_linear_437_760)"/>
<path d="M185.963 198.699L182.669 207.888L197.202 213.084L200.496 203.896L185.963 198.699Z" fill="url(#paint4_linear_437_760)"/>
<path d="M202.757 204.816L203.424 205.038C203.757 205.482 203.979 206.036 203.757 206.702L201.425 213.134C201.202 213.689 200.758 214.132 200.203 214.132L199.537 213.91L202.868 204.816H202.757Z" fill="url(#paint5_linear_437_760)"/>
<path d="M200.758 204.373L201.203 205.371L202.424 205.815L199.648 213.356L198.426 212.913L197.427 213.467" fill="url(#paint6_linear_437_760)"/>
<path d="M182.323 207.478C182.323 207.478 173.217 204.151 174.549 200.158C175.882 196.166 185.321 199.16 185.321 199.16L182.323 207.367V207.478Z" fill="url(#paint7_linear_437_760)"/>
<path d="M165.332 238.347L159.799 238.82L160.549 247.55L166.081 247.076L165.332 238.347Z" fill="url(#paint8_linear_437_760)"/>
<path d="M166.109 248.512V248.955C165.998 249.288 165.665 249.51 165.332 249.51L161.445 249.843C161.112 249.843 160.779 249.732 160.557 249.399V248.955L165.998 248.512H166.109Z" fill="url(#paint9_linear_437_760)"/>
<path d="M165.887 247.292L165.554 247.736V248.512L161.001 248.956V248.179L160.445 247.736" fill="url(#paint10_linear_437_760)"/>
<path d="M159.89 238.53C159.89 238.53 159.446 232.985 161.778 232.763C164.11 232.542 164.777 238.087 164.777 238.087L159.779 238.53H159.89Z" fill="url(#paint11_linear_437_760)"/>
</g>
<defs>
<linearGradient id="paint0_linear_437_760" x1="191.682" y1="239.487" x2="178.139" y2="225.695" gradientUnits="userSpaceOnUse">
<stop stop-color="#F8F6D8"/>
<stop offset="0.3" stop-color="#F0A6A2"/>
<stop offset="0.5" stop-color="#E96475"/>
<stop offset="0.7" stop-color="#E43455"/>
<stop offset="0.9" stop-color="#E21741"/>
<stop offset="1" stop-color="#E10C3A"/>
</linearGradient>
<linearGradient id="paint1_linear_437_760" x1="203.258" y1="249.437" x2="195.893" y2="243.701" gradientUnits="userSpaceOnUse">
<stop stop-color="#F8F6D8"/>
<stop offset="0.3" stop-color="#F0A6A2"/>
<stop offset="0.5" stop-color="#E96475"/>
<stop offset="0.7" stop-color="#E43455"/>
<stop offset="0.9" stop-color="#E21741"/>
<stop offset="1" stop-color="#E10C3A"/>
</linearGradient>
<linearGradient id="paint2_linear_437_760" x1="200.049" y1="247.83" x2="193.521" y2="240.705" gradientUnits="userSpaceOnUse">
<stop stop-color="#F8F6D8"/>
<stop offset="0.3" stop-color="#F0A6A2"/>
<stop offset="0.5" stop-color="#E96475"/>
<stop offset="0.7" stop-color="#E43455"/>
<stop offset="0.9" stop-color="#E21741"/>
<stop offset="1" stop-color="#E10C3A"/>
</linearGradient>
<linearGradient id="paint3_linear_437_760" x1="173.283" y1="221.435" x2="164.401" y2="211.473" gradientUnits="userSpaceOnUse">
<stop stop-color="#F8F6D8"/>
<stop offset="0.3" stop-color="#F0A6A2"/>
<stop offset="0.5" stop-color="#E96475"/>
<stop offset="0.7" stop-color="#E43455"/>
<stop offset="0.9" stop-color="#E21741"/>
<stop offset="1" stop-color="#E10C3A"/>
</linearGradient>
<linearGradient id="paint4_linear_437_760" x1="195.977" y1="207.511" x2="186.77" y2="204.123" gradientUnits="userSpaceOnUse">
<stop stop-color="#F8F6D8"/>
<stop offset="0.3" stop-color="#F0A6A2"/>
<stop offset="0.5" stop-color="#E96475"/>
<stop offset="0.7" stop-color="#E43455"/>
<stop offset="0.9" stop-color="#E21741"/>
<stop offset="1" stop-color="#E10C3A"/>
</linearGradient>
<linearGradient id="paint5_linear_437_760" x1="204.346" y1="210.653" x2="199.049" y2="207.995" gradientUnits="userSpaceOnUse">
<stop stop-color="#F8F6D8"/>
<stop offset="0.3" stop-color="#F0A6A2"/>
<stop offset="0.5" stop-color="#E96475"/>
<stop offset="0.7" stop-color="#E43455"/>
<stop offset="0.9" stop-color="#E21741"/>
<stop offset="1" stop-color="#E10C3A"/>
</linearGradient>
<linearGradient id="paint6_linear_437_760" x1="202.467" y1="210.167" x2="197.389" y2="207.395" gradientUnits="userSpaceOnUse">
<stop stop-color="#F8F6D8"/>
<stop offset="0.3" stop-color="#F0A6A2"/>
<stop offset="0.5" stop-color="#E96475"/>
<stop offset="0.7" stop-color="#E43455"/>
<stop offset="0.9" stop-color="#E21741"/>
<stop offset="1" stop-color="#E10C3A"/>
</linearGradient>
<linearGradient id="paint7_linear_437_760" x1="182.626" y1="203.788" x2="177.08" y2="201.556" gradientUnits="userSpaceOnUse">
<stop stop-color="#F8F6D8"/>
<stop offset="0.3" stop-color="#F0A6A2"/>
<stop offset="0.5" stop-color="#E96475"/>
<stop offset="0.7" stop-color="#E43455"/>
<stop offset="0.9" stop-color="#E21741"/>
<stop offset="1" stop-color="#E10C3A"/>
</linearGradient>
<linearGradient id="paint8_linear_437_760" x1="163.142" y1="245.599" x2="162.713" y2="240.046" gradientUnits="userSpaceOnUse">
<stop stop-color="#F8F6D8"/>
<stop offset="0.3" stop-color="#F0A6A2"/>
<stop offset="0.5" stop-color="#E96475"/>
<stop offset="0.7" stop-color="#E43455"/>
<stop offset="0.9" stop-color="#E21741"/>
<stop offset="1" stop-color="#E10C3A"/>
</linearGradient>
<linearGradient id="paint9_linear_437_760" x1="163.353" y1="249.581" x2="163.267" y2="248.778" gradientUnits="userSpaceOnUse">
<stop stop-color="#F8F6D8"/>
<stop offset="0.3" stop-color="#F0A6A2"/>
<stop offset="0.5" stop-color="#E96475"/>
<stop offset="0.7" stop-color="#E43455"/>
<stop offset="0.9" stop-color="#E21741"/>
<stop offset="1" stop-color="#E10C3A"/>
</linearGradient>
<linearGradient id="paint10_linear_437_760" x1="163.208" y1="248.629" x2="163.082" y2="247.624" gradientUnits="userSpaceOnUse">
<stop stop-color="#F8F6D8"/>
<stop offset="0.3" stop-color="#F0A6A2"/>
<stop offset="0.5" stop-color="#E96475"/>
<stop offset="0.7" stop-color="#E43455"/>
<stop offset="0.9" stop-color="#E21741"/>
<stop offset="1" stop-color="#E10C3A"/>
</linearGradient>
<linearGradient id="paint11_linear_437_760" x1="162.447" y1="237.395" x2="162.102" y2="233.893" gradientUnits="userSpaceOnUse">
<stop stop-color="#F8F6D8"/>
<stop offset="0.3" stop-color="#F0A6A2"/>
<stop offset="0.5" stop-color="#E96475"/>
<stop offset="0.7" stop-color="#E43455"/>
<stop offset="0.9" stop-color="#E21741"/>
<stop offset="1" stop-color="#E10C3A"/>
</linearGradient>
<clipPath id="clip0_437_760">
<rect width="412" height="359" fill="white"/>
</clipPath>
</defs>
</svg>
