<svg width="468" height="481" viewBox="0 0 468 481" fill="none" xmlns="http://www.w3.org/2000/svg">
<path d="M204.124 176L193.407 179.571L191.366 183.143L182.18 186.204H174.015L169.933 193.347L171.464 197.428L157.685 206.102C157.685 206.102 135.742 208.142 124.005 219.367V221.918H131.15V224.979C130.639 224.979 113.289 228.55 113.289 228.55L109.716 231.101L106.654 229.571V224.979L92.8763 217.326L91.3452 210.694L92.3658 206.612L78.5874 199.979L76.5464 203.041L78.5874 207.632V233.142H73.4843L68.8917 237.734V233.652L59.7062 232.632L56.6442 233.652L53.072 227.53V216.816H45.4173L42.3556 213.245H37.7627L32.1494 217.836H9.1855L0 227.02L1.02068 233.142L4.5926 234.673V238.754L1.02068 240.795L5.10309 252.019H17.8608L29.5979 259.672H33.1701V265.795L36.2318 267.835L45.4173 262.733L46.9485 265.795L42.3556 267.835L43.8865 270.386H52.5618L55.6235 287.733H61.2371V294.366H57.6649L56.134 297.937L58.1751 300.488V305.08L62.768 308.141L61.2371 312.222L66.8504 323.957H69.9124L71.4433 320.386L74.505 321.406L70.9328 329.569L69.4019 341.814L75.0155 347.936V359.161L70.9328 353.549H67.8711V366.303L62.768 374.977V379.058H68.3812L61.7473 385.691V391.813L57.6649 394.874V401.507L39.8041 433.649V444.363L43.8865 450.486H50.0102L53.5825 459.159H80.6288L87.2627 453.547H92.8763L105.634 463.751L103.593 471.404L105.124 473.445L116.861 471.914L123.495 479.057H134.721L140.335 480.077V469.363L147.479 463.751L152.582 464.771L156.665 457.628H164.83V454.567H170.443C170.443 454.057 176.567 462.22 176.567 462.22H179.629C179.629 461.71 179.629 457.628 179.629 457.628H187.284L182.18 463.751L186.263 466.302L190.345 464.261L194.428 467.322H199.531L196.469 460.179H200.041L209.227 471.404L218.412 472.424L221.984 478.036H229.639L232.701 479.567L240.355 475.996H248.01V469.363L253.624 466.812H263.83C263.83 466.302 271.485 459.669 271.485 459.669L266.892 452.016L259.237 450.486L250.562 439.771V430.588H257.196V424.466L254.134 422.425L252.093 419.364L254.644 415.282H259.747L264.85 408.65V400.486L261.789 397.425V387.731L264.34 383.65V378.548C264.85 378.548 261.789 375.487 261.789 375.487L262.809 370.385H270.974C270.974 370.895 267.912 363.752 267.912 363.752L259.747 362.732V348.957C259.237 348.957 259.237 340.794 259.237 340.794L283.732 321.406V316.304C283.221 316.304 277.608 313.753 277.608 313.753V307.12V301.508L286.283 295.386L292.407 286.713V282.631L287.814 278.55V272.937L292.407 265.284L297 262.223V253.55L289.856 246.917L286.283 239.775L278.118 237.734L277.098 233.142L271.485 230.591V225.999L275.567 221.918L274.036 217.836H269.953L263.319 222.428L256.685 220.898H253.624C253.624 220.387 252.603 217.836 252.603 217.836L255.155 215.285L252.093 213.245L248.521 214.775L241.886 211.714V206.102C241.376 206.102 235.763 206.102 235.763 206.102L231.68 204.571L229.129 195.388H220.964L219.943 185.694L211.778 182.122L204.124 180.592" fill="#201609"/>
<path d="M362 71.9514L390.921 61.1921L411.772 51.1055L415.135 54.4677L427.241 57.1576L431.277 55.8126L435.313 57.8299L438.676 55.8126L445.401 56.4849L446.074 59.1749L454.817 59.8471V65.227L456.835 67.2442H464.234L467.597 79.3481L464.906 86.0725V91.452L460.871 101.539L460.198 110.28L454.817 116.332L454.145 127.091L441.366 137.178L438.676 133.143L431.277 134.488L426.569 125.747L415.807 123.729L414.462 111.625L406.391 114.987L398.32 111.625L398.993 100.194L386.213 98.1764L384.868 84.0553L370.744 80.0204L362.672 79.3481L362 71.9514Z" fill="#201609"/>
<path d="M145.5 284C145.5 310.5 197.3 330.8 250.5 310C259.167 305.5 282 297.4 304 301C331.5 305.5 385.5 309 400.5 284C415.5 259 397.5 229.5 364.5 223.5C331.5 217.5 311.5 181 338 162.5C359.2 147.7 388.5 156.333 400.5 162.5C416.5 168.333 448.2 171.3 447 136.5C445.5 93 430 84.5 430.5 66.5" stroke="url(#paint0_linear_329_736)" stroke-width="2" stroke-dasharray="6 6"/>
<path d="M145.5 284C145.5 310.5 197.3 330.8 250.5 310C259.167 305.5 282 297.4 304 301C331.5 305.5 385.5 309 400.5 284C415.5 259 397.5 229.5 364.5 223.5C331.5 217.5 311.5 181 338 162.5C359.2 147.7 388.5 156.333 400.5 162.5C416.5 168.333 448.2 171.3 447 136.5C445.5 93 430 84.5 430.5 66.5" stroke="url(#paint1_linear_329_736)" stroke-width="2" stroke-dasharray="6 6"/>
<path d="M431.949 4.70703H428.586V66.5714H431.949V4.70703Z" fill="white"/>
<path d="M431.949 4.70703H428.586V66.5714H431.949V4.70703Z" fill="url(#paint2_linear_329_736)"/>
<path d="M430.605 32.2771C439.52 32.2771 446.747 25.0515 446.747 16.1384C446.747 7.22526 439.52 0 430.605 0C421.69 0 414.462 7.22526 414.462 16.1384C414.462 25.0515 421.69 32.2771 430.605 32.2771Z" fill="white"/>
<path d="M430.605 32.2771C439.52 32.2771 446.747 25.0515 446.747 16.1384C446.747 7.22526 439.52 0 430.605 0C421.69 0 414.462 7.22526 414.462 16.1384C414.462 25.0515 421.69 32.2771 430.605 32.2771Z" fill="url(#paint3_linear_329_736)"/>
<path d="M433.294 28.9153C435.894 28.9153 438.002 26.8078 438.002 24.2082C438.002 21.6085 435.894 19.501 433.294 19.501C430.694 19.501 428.586 21.6085 428.586 24.2082C428.586 26.8078 430.694 28.9153 433.294 28.9153Z" fill="#D50D33"/>
<path d="M441.365 22.1907C442.48 22.1907 443.383 21.2876 443.383 20.1735C443.383 19.0594 442.48 18.1562 441.365 18.1562C440.251 18.1562 439.348 19.0594 439.348 20.1735C439.348 21.2876 440.251 22.1907 441.365 22.1907Z" fill="#D50D33"/>
<path d="M147.487 222.707H144.124V284.571H147.487V222.707Z" fill="white"/>
<path d="M147.487 222.707H144.124V284.571H147.487V222.707Z" fill="url(#paint4_linear_329_736)"/>
<path d="M146.142 250.277C155.057 250.277 162.284 243.051 162.284 234.138C162.284 225.225 155.057 218 146.142 218C137.227 218 130 225.225 130 234.138C130 243.051 137.227 250.277 146.142 250.277Z" fill="white"/>
<path d="M146.142 250.277C155.057 250.277 162.284 243.051 162.284 234.138C162.284 225.225 155.057 218 146.142 218C137.227 218 130 225.225 130 234.138C130 243.051 137.227 250.277 146.142 250.277Z" fill="url(#paint5_linear_329_736)"/>
<path d="M148.832 246.915C151.432 246.915 153.54 244.808 153.54 242.208C153.54 239.608 151.432 237.501 148.832 237.501C146.232 237.501 144.124 239.608 144.124 242.208C144.124 244.808 146.232 246.915 148.832 246.915Z" fill="#D50D33"/>
<path d="M156.903 240.191C158.017 240.191 158.921 239.288 158.921 238.173C158.921 237.059 158.017 236.156 156.903 236.156C155.789 236.156 154.885 237.059 154.885 238.173C154.885 239.288 155.789 240.191 156.903 240.191Z" fill="#D50D33"/>
<defs>
<linearGradient id="paint0_linear_329_736" x1="296.267" y1="66.5" x2="296.267" y2="318.578" gradientUnits="userSpaceOnUse">
<stop/>
<stop offset="1" stop-color="#666666"/>
</linearGradient>
<linearGradient id="paint1_linear_329_736" x1="342.91" y1="253.964" x2="247.899" y2="124.927" gradientUnits="userSpaceOnUse">
<stop stop-color="#F8F6D8"/>
<stop offset="0.3" stop-color="#F0A6A2"/>
<stop offset="0.5" stop-color="#E96475"/>
<stop offset="0.7" stop-color="#E43455"/>
<stop offset="0.9" stop-color="#E21741"/>
<stop offset="1" stop-color="#E10C3A"/>
</linearGradient>
<linearGradient id="paint2_linear_329_736" x1="430.252" y1="54.4112" x2="434.033" y2="15.4515" gradientUnits="userSpaceOnUse">
<stop stop-color="#F8F6D8"/>
<stop offset="0.3" stop-color="#F0A6A2"/>
<stop offset="0.5" stop-color="#E96475"/>
<stop offset="0.7" stop-color="#E43455"/>
<stop offset="0.9" stop-color="#E21741"/>
<stop offset="1" stop-color="#E10C3A"/>
</linearGradient>
<linearGradient id="paint3_linear_329_736" x1="430.456" y1="25.9327" x2="430.564" y2="5.41502" gradientUnits="userSpaceOnUse">
<stop stop-color="#F8F6D8"/>
<stop offset="0.3" stop-color="#F0A6A2"/>
<stop offset="0.5" stop-color="#E96475"/>
<stop offset="0.7" stop-color="#E43455"/>
<stop offset="0.9" stop-color="#E21741"/>
<stop offset="1" stop-color="#E10C3A"/>
</linearGradient>
<linearGradient id="paint4_linear_329_736" x1="145.79" y1="272.411" x2="149.57" y2="233.451" gradientUnits="userSpaceOnUse">
<stop stop-color="#F8F6D8"/>
<stop offset="0.3" stop-color="#F0A6A2"/>
<stop offset="0.5" stop-color="#E96475"/>
<stop offset="0.7" stop-color="#E43455"/>
<stop offset="0.9" stop-color="#E21741"/>
<stop offset="1" stop-color="#E10C3A"/>
</linearGradient>
<linearGradient id="paint5_linear_329_736" x1="145.993" y1="243.933" x2="146.101" y2="223.415" gradientUnits="userSpaceOnUse">
<stop stop-color="#F8F6D8"/>
<stop offset="0.3" stop-color="#F0A6A2"/>
<stop offset="0.5" stop-color="#E96475"/>
<stop offset="0.7" stop-color="#E43455"/>
<stop offset="0.9" stop-color="#E21741"/>
<stop offset="1" stop-color="#E10C3A"/>
</linearGradient>
</defs>
</svg>
