<svg width="57" height="52" viewBox="0 0 57 52" fill="none" xmlns="http://www.w3.org/2000/svg">
<path d="M18.4491 2.33533V0.389221C18.4491 0.311377 18.5269 0.311377 18.7604 0.233533H18.8383V0H18.0598V0.0778445C18.0598 0.0778445 17.7485 0.778442 17.5149 1.24551C17.4371 1.4012 17.3593 1.63473 17.2814 1.79042C17.2036 1.86826 17.2036 2.02395 17.1257 2.10179C17.0479 1.86826 16.8922 1.55688 16.7365 1.24551C16.503 0.778442 16.1916 0.0778445 16.1916 0.0778445V0H15.3353V0.233533H15.4131C15.5688 0.233533 15.6467 0.311376 15.7245 0.311376C15.8024 0.311376 15.8024 0.389221 15.8802 0.544909V2.17964C15.8802 2.33533 15.8802 2.49101 15.5688 2.49101H15.491V2.80239H15.9581C16.1916 2.80239 16.4251 2.80239 16.503 2.88024H16.5808V2.56886H16.503C16.1916 2.49101 16.1916 2.49101 16.1137 2.33533V1.16766C16.1916 1.24551 16.1916 1.32335 16.2694 1.47904L16.3473 1.71257C16.3473 1.79042 16.4251 1.86826 16.4251 1.9461C16.5808 2.17964 16.7365 2.49101 16.8922 2.95808V3.03592H17.1257V2.95808C17.2036 2.72455 17.3593 2.25748 17.5928 1.9461L17.6706 1.79042C17.7485 1.63473 17.7485 1.55688 17.8263 1.40119C17.9042 1.32335 17.9042 1.24551 17.982 1.08982V2.49101C17.982 2.56886 17.9042 2.6467 17.6706 2.6467H17.5928V2.88024H17.6706C17.6706 2.88024 17.982 2.80239 18.1377 2.80239C18.3712 2.80239 18.6048 2.80239 18.8383 2.88024H18.9161V2.56886H18.8383C18.5269 2.49101 18.4491 2.41317 18.4491 2.33533ZM23.2754 0H22.5748V0.311376H22.6527C22.8862 0.311376 22.964 0.389221 22.964 0.467065C23.0419 0.54491 23.0419 0.778442 23.0419 0.93413V1.63473C23.0419 2.41317 22.5748 2.49101 22.2634 2.49101C21.9521 2.49101 21.485 2.41317 21.485 1.71257V0.622754C21.485 0.389221 21.5628 0.389221 21.8742 0.311376H21.9521V0.0778445H20.473V0.311376H20.5509C20.8622 0.389221 20.9401 0.389221 20.9401 0.700597V1.86826C20.9401 2.56886 21.4072 2.95808 22.1856 2.95808C22.7305 2.95808 23.3533 2.6467 23.3533 1.79042V1.01197C23.3533 0.856286 23.3532 0.622753 23.4311 0.544909C23.4311 0.467065 23.5089 0.467065 23.7425 0.467065H23.8203V0.155688H23.7425C23.5089 -1.50796e-07 23.3533 0 23.2754 0ZM26.6227 1.16766C26.2335 1.01197 26.1556 0.856286 26.1556 0.700597C26.1556 0.467065 26.3113 0.311376 26.6227 0.311376C26.8562 0.311376 27.0119 0.467065 27.0119 0.700597V0.778442H27.2455V0.155688H27.1676C26.9341 0.077844 26.7784 0 26.5449 0C26 0 25.6107 0.311377 25.6107 0.778442C25.6107 1.16766 25.8443 1.4012 26.3892 1.63473C26.7784 1.79042 26.8562 1.86826 26.8562 2.10179C26.8562 2.33533 26.6227 2.56886 26.3892 2.56886C26.0778 2.56886 25.9221 2.41317 25.8443 2.10179V2.02395H25.6107V2.72455H25.6886C25.9221 2.80239 26.2335 2.88024 26.467 2.88024C27.0898 2.88024 27.479 2.49101 27.479 2.02395C27.4012 1.47904 27.0119 1.32335 26.6227 1.16766ZM31.2934 2.02395C31.2155 2.25748 31.2155 2.33533 31.1377 2.33533C31.0598 2.33533 30.8263 2.41317 30.5928 2.41317C30.4371 2.41317 30.3592 2.41317 30.2814 2.33533C30.2814 2.33533 30.2035 2.17964 30.2035 1.86826V1.47904H30.4371C30.5928 1.47904 30.7485 1.47904 30.7485 1.55688C30.8263 1.55688 30.8263 1.71257 30.9041 1.79042V1.9461L31.1377 1.86826V1.79042C31.0598 1.63473 31.0598 1.47904 31.0598 1.32335V0.93413H30.9041V1.01197C30.8263 1.16766 30.8263 1.24551 30.7485 1.24551C30.6706 1.24551 30.5928 1.32335 30.4371 1.32335H30.2035V0.467065H30.5149C30.7485 0.467065 30.8263 0.467065 30.9041 0.544909C30.982 0.622753 31.0598 0.700598 31.0598 0.856286V0.93413H31.2934V0.155688H29.1916V0.389221H29.3473C29.5029 0.389221 29.6586 0.467065 29.6586 0.544909V2.56886C29.6586 2.6467 29.5029 2.6467 29.3473 2.6467H29.2694V2.88024H31.449V2.80239C31.449 2.6467 31.4491 2.6467 31.5269 2.49101V2.10179L31.2934 2.02395ZM36.1197 0H35.4969V0.311376H35.5748C35.8083 0.311376 35.8862 0.389221 35.8862 0.467065C35.964 0.54491 35.964 0.778442 35.964 0.93413V1.63473C35.964 2.41317 35.4969 2.49101 35.1856 2.49101C34.8742 2.49101 34.4071 2.41317 34.4071 1.71257V0.622754C34.4071 0.389221 34.485 0.389221 34.7963 0.311376H34.8742V0.0778445H33.3951V0.311376H33.473C33.7844 0.389221 33.8622 0.389221 33.8622 0.700597V1.86826C33.8622 2.56886 34.3293 2.95808 35.1077 2.95808C35.6526 2.95808 36.2754 2.6467 36.2754 1.79042V1.01197C36.2754 0.856286 36.2754 0.622753 36.3532 0.544909C36.3532 0.467065 36.4311 0.467065 36.6646 0.467065H36.7425V0.155688H36.6646C36.3532 -1.50796e-07 36.2754 0 36.1197 0ZM41.8023 2.49101C41.5688 2.41317 41.491 2.41317 41.491 2.33533V0.389221C41.491 0.311377 41.5688 0.311377 41.8023 0.233533H41.8802V0H41.0239V0.0778445C41.0239 0.0778445 40.7125 0.778442 40.479 1.24551C40.4011 1.4012 40.3233 1.63473 40.2454 1.79042C40.1676 1.86826 40.1676 1.94611 40.0898 2.02395C40.0119 1.79042 39.8562 1.47904 39.7005 1.16766L39.1556 0.0778445V0H38.2993V0.233533H38.3772C38.5329 0.233533 38.6107 0.311376 38.6886 0.311376C38.7664 0.311376 38.7664 0.389221 38.8442 0.544909V2.25748C38.8442 2.41317 38.8442 2.56886 38.5329 2.56886H38.455V2.88024H38.9221C39.1556 2.88024 39.3892 2.88023 39.467 2.95808H39.5448V2.6467H39.467C39.1556 2.56886 39.1556 2.56886 39.0778 2.41317V1.24551C39.1556 1.32335 39.1556 1.4012 39.2335 1.55688L39.3113 1.79042C39.3113 1.86826 39.3891 1.94611 39.3891 2.02395C39.5448 2.25748 39.7005 2.56886 39.8562 3.03592V3.11377H40.0898V3.03592C40.1676 2.80239 40.4011 2.33533 40.5568 2.02395L40.6347 1.86826C40.7125 1.71257 40.7125 1.63473 40.7903 1.47904C40.8682 1.4012 40.8682 1.32335 40.946 1.16766V2.56886C40.946 2.6467 40.8682 2.72455 40.6347 2.72455H40.5568V2.95808H40.6347C40.6347 2.95808 40.946 2.88024 41.1017 2.88024C41.3353 2.88024 41.5688 2.88023 41.8023 2.95808H41.8802V2.6467L41.8023 2.49101ZM1.16766 9.3413C1.24551 9.57484 1.24551 9.96406 1.24551 10.976C1.24551 12.1437 1.24551 12.6108 1.16766 12.8443C1.08982 13.0778 1.01197 13.2335 0.389221 13.3114C0.389221 13.3114 0.311372 13.3114 0.311372 13.3892V13.7006C0.700593 13.6227 1.08982 13.6227 1.63473 13.6227C2.10179 13.6227 2.6467 13.6227 3.03592 13.7006V13.3892C3.03592 13.3892 3.03592 13.3114 2.95808 13.3114C2.41317 13.2335 2.25748 13.1557 2.17963 13C2.10179 12.8443 2.02395 12.2215 2.02395 10.509V8.95208H2.25748C2.95807 8.95208 3.3473 9.41915 3.3473 10.0419C3.3473 10.6647 2.95808 11.1317 2.33533 11.2096C2.33533 11.2096 2.25748 11.2096 2.25748 11.2874V11.5209C2.25748 11.5209 2.25748 11.5988 2.33533 11.5988C3.11377 11.5988 3.58083 11.5209 3.89221 11.2096C4.20359 10.976 4.43712 10.5868 4.43712 10.1197C4.43712 9.18561 3.65867 8.64071 2.49101 8.64071H0.077843C0.077843 8.64071 0 8.64071 0 8.71855V8.95208C0 8.95208 -1.18897e-06 9.02993 0.077843 9.02993C0.934129 8.95208 1.08982 9.02993 1.16766 9.3413ZM11.5209 13.7784H12.3772C12.4551 13.6227 12.4551 13.5449 12.5329 13.3114C12.6886 12.9221 12.8443 12.6108 12.9221 12.4551V12.3772H12.4551C12.2215 12.7664 11.988 13 11.7545 13.1557C11.5209 13.3114 11.2874 13.3114 11.0539 13.3114C10.5868 13.3114 10.4311 13.2335 10.2754 13.1557C10.0419 13 9.96405 12.8443 9.96405 12.0658V10.6647C9.96405 9.57484 9.96406 9.3413 10.1197 9.18561C10.1976 9.10777 10.4311 8.95208 10.7425 8.95208C10.7425 8.95208 10.8203 8.95208 10.8203 8.87424V8.56286H9.49699C8.87423 8.56286 8.56286 8.56286 8.32933 8.48502H8.17364V8.79639C8.17364 8.79639 8.17364 8.87424 8.25148 8.87424C8.6407 8.95208 8.79639 9.02993 8.95208 9.10777C9.02993 9.26346 9.10777 9.41915 9.10777 9.73052V11.8323C9.10777 12.5329 9.10777 12.9221 9.02992 13.0778C8.95208 13.1557 8.87423 13.2335 8.40717 13.3114C8.40717 13.3114 8.32933 13.3114 8.32933 13.3892V13.6227C8.32933 13.6227 8.32932 13.7006 8.40717 13.7006H8.48501C8.6407 13.7006 9.02992 13.6227 9.41915 13.6227H10.509C10.7425 13.7006 11.1317 13.7784 11.5209 13.7784ZM19.0718 13.3892L18.994 13.7006H21.5628V13.3892C21.5628 13.3892 21.5628 13.3114 21.485 13.3114C21.1736 13.3114 21.0179 13.2335 20.9401 13.0778C20.7844 12.9221 20.7844 12.7664 20.3173 11.7545C20.1616 11.4431 20.006 11.0539 19.8503 10.509C19.3832 9.3413 18.994 8.17364 18.994 8.17364H18.8383C18.6826 8.48502 18.4491 8.87424 18.1377 8.87424V8.95208L18.2155 9.10777C18.1377 9.3413 17.3592 11.3653 16.97 12.5329C16.7365 13.1557 16.5808 13.3114 16.0359 13.3892C16.0359 13.3892 15.9581 13.3892 15.9581 13.467V13.7784H18.0598V13.467C18.0598 13.467 18.0598 13.3892 17.982 13.3892C17.4371 13.3892 17.2036 13.2335 17.2036 13C17.2036 12.8443 17.5149 11.9102 17.5928 11.7545H19.1497C19.2275 11.9102 19.3054 12.0659 19.3054 12.2215C19.461 12.6108 19.5389 12.8443 19.5389 13C19.8503 13.1557 19.6946 13.3114 19.0718 13.3892ZM19.2275 11.2096H18.1377L18.6826 9.73052L19.2275 11.2096ZM26.6227 13.0778C26.5449 12.9221 26.5449 12.8443 26.5449 11.6766V9.88621C26.7784 10.1976 27.6347 11.1317 28.2574 11.7545L28.4131 11.988C29.3473 13 29.97 13.7006 30.1257 14.012L30.3592 13.8563V13.7784C30.3592 13.7784 30.4371 10.8982 30.4371 10.7425C30.4371 9.80837 30.4371 9.49699 30.5149 9.3413C30.5928 9.18561 30.8263 9.02993 31.2934 9.02993C31.2934 9.02993 31.3712 9.02993 31.3712 8.95208V8.56286H29.1137V8.95208C29.5808 9.02993 29.7365 9.10777 29.8143 9.26346C29.8922 9.41915 29.8922 9.57484 29.8922 10.6647V12.0658C29.7365 11.8323 29.4251 11.5209 29.1137 11.2096L28.8802 10.8982C27.3233 9.26346 26.9341 8.71855 26.8562 8.56286H24.8323C24.8323 8.56286 24.7545 8.56286 24.7545 8.64071V8.95208C24.7545 8.95208 24.7544 9.02993 24.8323 9.02993C25.2994 9.02993 25.5329 9.18561 25.8443 9.41915V11.988C25.8443 12.9221 25.8443 13.0778 25.7664 13.2335C25.6886 13.3892 25.5329 13.467 24.988 13.5449C24.988 13.5449 24.9101 13.5449 24.9101 13.6227V13.9341C25.2994 13.9341 25.6886 13.8563 26.1556 13.8563C26.7005 13.8563 27.0119 13.8563 27.3233 13.9341V13.6227C27.3233 13.6227 27.3233 13.5449 27.2455 13.5449C27.0119 13.3114 26.7006 13.2335 26.6227 13.0778ZM35.5748 9.26346H36.976V11.988C36.976 12.3772 36.976 12.9221 36.8203 13.0778C36.7425 13.2335 36.5868 13.2335 36.3532 13.3114H36.1975V13.7006C36.5089 13.7006 37.0538 13.6227 37.443 13.6227C37.8323 13.6227 38.2993 13.6227 38.7664 13.7006V13.3892C38.7664 13.3892 38.7664 13.3114 38.6886 13.3114C38.2215 13.2335 38.0658 13.1557 37.988 12.8443C37.9101 12.6108 37.9101 12.3772 37.9101 11.5988V9.18561H38.7664C39.2335 9.18561 39.3113 9.18561 39.3891 9.26346C39.467 9.3413 39.467 9.41915 39.467 9.80837C39.467 9.80837 39.467 9.88621 39.5448 9.88621H39.8562C39.8562 9.88621 39.9341 9.88621 39.9341 9.80837C40.0119 9.3413 40.0897 8.95208 40.1676 8.56286V8.48502H39.7784C39.7005 8.64071 39.6227 8.64071 39.3891 8.64071C38.9999 8.64071 37.8323 8.71855 36.976 8.71855H35.3413C35.1856 8.71855 35.1077 8.71855 35.1077 8.48502C35.1077 8.48502 35.1077 8.40717 35.0299 8.40717H34.7185C34.7185 8.40717 34.6407 8.40717 34.6407 8.48502C34.6407 8.79639 34.5628 9.26346 34.485 9.73052V9.80837H34.8742V9.73052C35.1856 9.3413 35.2634 9.26346 35.5748 9.26346ZM44.6047 9.18561C44.6826 9.3413 44.7604 9.49699 44.7604 9.80837C44.7604 10.1976 44.8382 11.1317 44.8382 11.9102C44.8382 12.6886 44.8382 13.0778 44.6826 13.2335C44.6047 13.3114 44.449 13.3892 44.0598 13.3892V13.7784C44.0598 13.7784 44.6047 13.7006 45.1496 13.7006C45.6945 13.7006 46.2394 13.7006 46.6287 13.7784V13.467C46.6287 13.467 46.6287 13.3892 46.5508 13.3892C46.1616 13.3114 46.0059 13.2335 45.9281 13.0778C45.8502 12.9221 45.7724 12.7664 45.7724 11.6766V10.3533C45.7724 9.41915 45.8502 9.26346 45.9281 9.18561C46.0838 9.02993 46.0838 9.02993 46.6287 8.95208V8.64071C46.6287 8.64071 46.6287 8.56286 46.5508 8.56286H45.3053C44.7604 8.56286 44.2933 8.56286 43.9041 8.48502V8.79639C43.9041 8.79639 43.9041 8.87424 43.982 8.87424C44.2933 8.95208 44.5269 9.02993 44.6047 9.18561ZM56.8263 8.56286H54.5688V8.87424C54.5688 8.87424 54.5688 8.95208 54.6466 8.95208C55.1137 9.02993 55.2694 9.10777 55.3472 9.26346C55.4251 9.41915 55.4251 9.57484 55.4251 10.6647V12.0658C55.2694 11.8323 54.958 11.5209 54.6466 11.2096L54.3352 10.8982C53.0897 9.57484 52.467 8.79639 52.3113 8.56286H50.2873C50.2873 8.56286 50.2095 8.56286 50.2095 8.64071V8.95208C50.2095 8.95208 50.2095 9.02993 50.2873 9.02993C50.7544 9.02993 50.9879 9.18561 51.2993 9.41915V11.988C51.2993 12.9221 51.2993 13.0778 51.2215 13.2335C51.1436 13.3892 50.9879 13.467 50.443 13.5449C50.443 13.5449 50.3652 13.5449 50.3652 13.6227V13.9341C50.7544 13.9341 51.1436 13.8563 51.6107 13.8563C52.1556 13.8563 52.467 13.8563 52.7784 13.9341V13.6227C52.7784 13.6227 52.7784 13.5449 52.7005 13.5449C52.1556 13.467 51.9221 13.3892 51.8442 13.2335C51.7664 13.0778 51.7664 13 51.7664 11.8323V10.0419C51.9999 10.3533 52.8562 11.2874 53.479 11.9102L53.6346 12.0658C54.5688 13.0778 55.1915 13.7784 55.4251 14.0898L55.6586 13.9341V13.8563C55.6586 13.8563 55.7364 10.976 55.7364 10.8203C55.7364 9.88621 55.7364 9.57484 55.8143 9.41915C55.8921 9.26346 56.1257 9.10777 56.5927 9.10777C56.5927 9.10777 56.6706 9.10777 56.6706 9.02993L56.8263 8.56286C56.9041 8.56286 56.9041 8.56286 56.8263 8.56286ZM7.31735 17.982C6.77244 18.0599 6.22753 18.0599 5.994 18.0599H5.68262C5.68262 18.0599 5.21556 18.994 4.74849 20.006C4.51496 20.473 4.28143 20.9401 4.12574 21.3293C4.04789 21.5628 3.89221 21.7964 3.89221 21.8742C3.81437 21.6407 3.65867 21.3293 3.42514 20.9401C3.26945 20.7066 3.19161 20.473 3.03592 20.1616C2.80239 19.6946 2.6467 19.3832 2.49101 19.1497C2.17963 18.6048 2.10179 18.3712 2.02395 18.1377H1.55688C1.16766 18.1377 0.311372 18.0599 0.311372 18.0599V18.3712C0.311372 18.3712 0.311377 18.4491 0.389221 18.4491C0.700598 18.5269 0.934127 18.5269 1.01197 18.6048C1.08982 18.6826 1.16766 18.7605 1.32335 19.0718V21.2515C1.32335 22.3413 1.32335 22.497 1.24551 22.6527C1.16766 22.8083 1.08982 22.8862 0.544907 22.964V23.3533H0.62275C0.934127 23.2754 1.08981 23.2754 1.47903 23.2754C1.9461 23.2754 2.56886 23.3533 2.72455 23.3533V23.0419C2.72455 23.0419 2.72454 22.964 2.6467 22.964C2.10179 22.8862 2.02395 22.8083 1.9461 22.6527C1.86826 22.497 1.86826 22.3413 1.86826 22.2634V20.1616C2.02394 20.3952 2.25748 20.9401 2.6467 21.6407C3.11376 22.5748 3.42514 23.1976 3.58083 23.4311H4.0479C4.20358 22.964 4.35927 22.6527 4.90418 21.485L5.2934 20.7066C5.44909 20.3173 5.60478 20.0838 5.68262 19.9281V21.3293C5.68262 22.1856 5.68262 22.497 5.60478 22.6527C5.52693 22.8083 5.44909 22.964 4.98202 22.964C4.98202 22.964 4.90418 22.964 4.90418 23.0419V23.3533C5.2934 23.2754 5.68262 23.2754 6.07184 23.2754C6.38322 23.2754 7.3952 23.3533 7.3952 23.3533V23.0419C7.3952 23.0419 7.39519 22.964 7.31735 22.964C6.85028 22.8862 6.6946 22.8083 6.61676 22.5748C6.53891 22.3413 6.53891 22.1077 6.53891 21.2515V19.9281C6.53891 19.1497 6.53891 18.9161 6.61676 18.8383C6.6946 18.6826 6.85028 18.6048 7.31735 18.5269C7.31735 18.5269 7.3952 18.5269 7.3952 18.4491L7.31735 17.982C7.39519 18.0599 7.39519 18.0599 7.31735 17.982ZM13.1557 18.0599C11.5988 18.0599 10.3533 19.2275 10.3533 20.7066C10.3533 22.1856 11.5209 23.2754 13.1557 23.2754C14.7125 23.2754 15.9581 22.1078 15.9581 20.5509C15.9581 19.1497 14.7904 18.0599 13.1557 18.0599ZM13.2335 22.964C12.2994 22.964 11.5209 21.9521 11.5209 20.5509C11.5209 19.3054 12.1437 18.4491 13.1557 18.4491C14.0898 18.4491 14.7904 19.461 14.7904 20.7844C14.7904 22.0299 14.0898 22.964 13.2335 22.964ZM23.7425 22.5748C23.3533 22.1856 23.1197 21.7964 22.6527 21.0179L22.4191 20.6287C23.0419 20.473 23.4311 20.0838 23.4311 19.5389C23.4311 18.6048 22.6527 18.0599 21.3293 18.0599H20.5509C19.6946 18.0599 19.1497 17.982 19.0718 17.982V18.2934C19.0718 18.2934 19.0718 18.3712 19.1497 18.3712C19.461 18.4491 19.6167 18.4491 19.7724 18.5269C20.006 18.7604 20.006 19.0718 20.006 21.1736C20.006 22.1077 20.006 22.4191 19.9281 22.5748C19.8503 22.7305 19.6946 22.7305 19.2275 22.8083C19.2275 22.8083 19.1497 22.8083 19.1497 22.8862V23.1976C19.5389 23.1197 20.006 23.1197 20.473 23.1197C20.9401 23.1197 21.485 23.1197 21.7185 23.1976H21.8742C21.8742 23.1976 21.9521 23.1976 21.9521 23.1197V22.8083C21.9521 22.8083 21.9521 22.7305 21.8742 22.7305C21.1736 22.6527 21.0958 22.497 21.0179 22.1856C21.0179 21.9521 20.9401 21.5628 20.9401 20.9401V20.7844H21.0958C21.4072 20.7844 21.485 20.9401 21.6407 21.2515C21.6407 21.3293 21.7185 21.3293 21.7185 21.4072C21.7185 21.485 21.7964 21.485 21.7964 21.5628C22.0299 21.9521 22.497 22.7305 22.8862 22.964C23.1197 23.1197 23.5089 23.1976 24.0538 23.1976H24.5988C24.5988 23.1976 24.6766 23.1976 24.6766 23.1197V22.964C24.6766 22.964 24.6766 22.8862 24.5988 22.8862C24.2874 22.964 24.0539 22.8083 23.7425 22.5748ZM22.3413 19.5389C22.3413 20.1616 21.9521 20.5509 21.2515 20.5509H20.9401V18.4491H21.1736C21.8742 18.4491 22.3413 18.9161 22.3413 19.5389ZM32.0718 21.9521H31.7604C31.7604 22.0299 31.7604 22.0299 31.6826 22.1078C31.6047 22.3413 31.5269 22.497 31.2934 22.6527C31.0598 22.7305 30.8263 22.8083 30.4371 22.8083C29.97 22.8083 29.7365 22.7305 29.5808 22.5748C29.4251 22.4191 29.4251 22.3413 29.4251 21.5628V20.7844H29.8922C30.5149 20.7844 30.6706 20.8622 30.7485 21.0179C30.8263 21.1736 30.9041 21.1736 30.9041 21.485L31.1377 21.3293V21.2515C31.0598 20.9401 31.0598 20.7844 31.0598 20.3952V19.7724H30.6706C30.5928 20.006 30.5149 20.1616 30.4371 20.1616C30.3592 20.2395 30.0479 20.2395 29.5808 20.2395H29.2694V18.4491H30.1257C30.982 18.4491 31.1377 18.6048 31.2934 19.2275H31.6047V18.0599H29.6586C28.3353 18.0599 28.0239 18.0599 27.7125 17.982H27.5568V18.2934C27.5568 18.2934 27.5568 18.3712 27.6347 18.3712C27.9461 18.4491 28.1018 18.4491 28.2574 18.6048C28.4131 18.7605 28.4131 18.9161 28.4131 19.2275V22.0299C28.4131 22.4191 28.3353 22.5748 28.3353 22.6527C28.2574 22.8083 28.1017 22.8083 27.7904 22.8862V23.2754H27.8682C28.0239 23.2754 28.4131 23.1976 28.8802 23.1976H31.9161C31.9161 23.1976 31.994 23.1976 31.994 23.1197C31.994 22.964 31.994 22.8862 32.0718 22.5748V21.9521C32.1496 22.0299 32.1496 22.0299 32.0718 21.9521ZM40.7903 18.0599H40.4011C40.3233 18.2155 40.2454 18.2155 40.0119 18.2155C39.5448 18.2155 38.3772 18.2934 37.5987 18.2934H35.964C35.8083 18.2934 35.7305 18.2934 35.7305 18.0599C35.7305 18.0599 35.7305 17.982 35.6526 17.982H35.3413C35.3413 17.982 35.2634 17.982 35.2634 18.0599C35.2634 18.3712 35.1856 18.8383 35.1077 19.3054V19.3832H35.4969V19.3054C35.6526 18.9161 35.7305 18.8383 36.0419 18.7604H37.443V21.485C37.443 21.8742 37.443 22.4191 37.2874 22.5748C37.2095 22.7305 37.0538 22.7305 36.8203 22.8083H36.6646V23.1976C36.976 23.1976 37.5209 23.1197 37.9101 23.1197C38.2993 23.1197 38.7664 23.1197 39.2335 23.1976V22.8862C39.2335 22.8862 39.2335 22.8083 39.1556 22.8083C38.6886 22.7305 38.5329 22.6527 38.455 22.3413C38.3772 22.1077 38.3772 21.8742 38.3772 21.0958V18.6826H39.2335C39.7005 18.6826 39.7784 18.6826 39.8562 18.7604C39.9341 18.8383 39.9341 18.9161 39.9341 19.3054C39.9341 19.3054 39.9341 19.3832 40.0119 19.3832H40.3233C40.3233 19.3832 40.4011 19.3832 40.4011 19.3054C40.6347 18.9161 40.7125 18.5269 40.7903 18.0599ZM49.7424 18.0599C49.4311 18.0599 49.1197 18.1377 48.5748 18.1377H47.5628V18.4491C47.5628 18.4491 47.5628 18.5269 47.6406 18.5269C48.2634 18.6048 48.3412 18.6826 48.4191 18.994C48.4969 19.2275 48.4969 20.1616 48.4969 20.8622C48.4969 21.7185 48.4191 22.0299 48.1855 22.3413C47.952 22.6527 47.485 22.8862 46.94 22.8862C46.473 22.8862 46.1616 22.7305 45.8502 22.497C45.5388 22.1856 45.461 21.9521 45.461 20.5509V19.3832C45.461 18.6826 45.6167 18.6048 46.3951 18.5269C46.3951 18.5269 46.473 18.5269 46.473 18.4491V18.1377C46.0059 18.2155 45.6945 18.2155 45.2275 18.2155C44.6047 18.2155 43.982 18.2155 43.6706 18.1377H43.5927V18.5269C44.0598 18.6048 44.2155 18.6826 44.2933 18.9161C44.3712 19.1497 44.3712 19.3832 44.3712 21.1736V21.3293C44.3712 21.9521 44.3712 22.3413 44.8382 22.8083C45.2275 23.2754 45.8502 23.4311 46.7065 23.4311C47.485 23.4311 48.0299 23.1976 48.4191 22.7305C48.7305 22.4191 48.8862 22.0299 48.8862 21.485C48.8862 21.1736 48.964 19.3832 48.964 19.3054C48.964 18.6826 49.0418 18.6048 49.8203 18.4491V18.3712L49.7424 18.0599ZM55.2694 20.473C55.1137 20.3952 54.958 20.3173 54.7245 20.2395L54.5688 20.1616C54.1795 20.006 53.7903 19.8503 53.7903 19.3054C53.7903 18.8383 54.1796 18.4491 54.7245 18.4491C55.2694 18.4491 55.5807 18.7605 55.7364 19.3832H56.1256V18.2155C55.6586 17.982 55.1915 17.9042 54.8023 17.9042C53.7125 17.9042 52.934 18.5269 52.934 19.3832C52.934 19.9281 53.2454 20.3173 53.7903 20.6287C53.946 20.7066 54.1796 20.7844 54.3352 20.8622C54.7245 21.0179 55.0358 21.1736 55.2694 21.3293C55.4251 21.485 55.4251 21.6407 55.4251 21.7964C55.4251 22.2634 54.958 22.6527 54.4131 22.6527C54.1017 22.6527 53.7903 22.497 53.5568 22.3413C53.3233 22.1077 53.2454 21.9521 53.1676 21.485C53.1676 21.485 53.1676 21.4072 53.0897 21.4072H52.7005C52.7005 21.4072 52.6227 21.4072 52.6227 21.485V22.7305C53.1676 23.0419 53.7125 23.1197 54.2574 23.1197C55.4251 23.1197 56.2813 22.4191 56.2813 21.5628C56.2813 21.0958 55.8921 20.7844 55.2694 20.473Z" fill="#F8F6D8"/>
<path d="M15.1025 40.7909L14.7133 40.4795L14.6355 40.5573L14.7133 40.6352V40.713L14.3241 41.1801C14.3241 41.2579 14.2463 41.2579 14.2463 41.2579H14.1684L14.0906 41.3358L14.7912 41.8807L15.0247 41.6472L14.9469 41.5693C14.869 41.6472 14.869 41.6472 14.7912 41.6472C14.7133 41.6472 14.7133 41.6472 14.6355 41.5693C14.5576 41.5693 14.5576 41.4915 14.5576 41.4915L14.6355 41.4136L14.9469 40.9466L15.0247 40.8687H15.1025V40.7909C15.1804 40.7909 15.1804 40.7909 15.1025 40.7909ZM16.0367 42.2699V42.1142L16.1145 41.2579H16.0367L15.4139 41.8028C15.3361 41.8807 15.2582 41.8807 15.2582 41.8807V41.9585L15.5696 42.1142V42.0364H15.4918L15.5696 41.9585L15.8031 42.1142V42.2699H15.7253V42.3478L16.1924 42.5813L16.0367 42.2699C16.1145 42.3478 16.1145 42.3478 16.0367 42.2699ZM15.7253 41.8807L15.5696 41.8028L15.7253 41.6472V41.8807ZM17.1265 41.725L16.7373 41.5693V41.6472C16.8151 41.6472 16.8151 41.6472 16.8151 41.725V41.8028L16.6594 42.3478C16.6594 42.4256 16.6594 42.4256 16.5816 42.4256H16.5037V42.5034L16.9708 42.6591C17.0487 42.6591 17.1265 42.737 17.2043 42.737H17.2822C17.36 42.737 17.4379 42.6591 17.4379 42.5813V42.3478C17.4379 42.2699 17.36 42.2699 17.2822 42.1921H17.4379C17.5157 42.1921 17.5157 42.1142 17.5157 42.0364V41.8028C17.36 41.8028 17.2822 41.8028 17.1265 41.725ZM17.0487 42.5034C17.0487 42.5813 16.9708 42.5813 16.9708 42.6591H16.8151V42.5813L16.893 42.3478C16.9708 42.3478 16.9708 42.3478 16.9708 42.4256V42.5034C17.0487 42.3478 17.0487 42.4256 17.0487 42.5034ZM17.1265 42.0364C17.1265 42.1142 17.0487 42.1142 17.0487 42.1142H16.9708L17.0487 41.8028H17.1265V41.8807C17.2043 41.9585 17.1265 41.9585 17.1265 42.0364ZM18.4498 42.0364H18.1385C18.0606 42.0364 17.9828 42.1142 17.9049 42.1921C17.8271 42.2699 17.8271 42.3478 17.7493 42.4256V42.6591C17.7493 42.737 17.8271 42.8148 17.9049 42.8927C17.9828 42.9705 18.0606 42.9705 18.2163 43.0484H18.372C18.4499 43.0484 18.6055 43.0483 18.6834 42.9705C18.7612 42.8927 18.8391 42.737 18.9169 42.6591C18.9169 42.5034 18.9169 42.3478 18.8391 42.2699C18.7612 42.1921 18.6055 42.1142 18.4498 42.0364ZM18.6055 42.5813C18.6055 42.737 18.5277 42.8148 18.5277 42.8927C18.4498 42.9705 18.4499 42.9705 18.372 42.9705C18.2942 42.9705 18.2163 42.8927 18.2163 42.8148V42.5034C18.2163 42.3478 18.2942 42.2699 18.2942 42.1921C18.2942 42.1142 18.372 42.1142 18.4498 42.1142H18.5277C18.6055 42.1142 18.6834 42.1921 18.6834 42.2699C18.6055 42.3478 18.6055 42.5034 18.6055 42.5813ZM20.2403 43.1262C20.2403 43.1262 20.1624 43.0483 20.1624 42.9705C20.0846 42.8927 20.0846 42.8148 20.0067 42.737C20.1624 42.6591 20.1624 42.5813 20.1624 42.5034V42.3478C20.1624 42.2699 20.0846 42.2699 20.0846 42.2699C20.0067 42.2699 20.0067 42.1921 19.9289 42.1921H19.2283V42.2699H19.3061V42.9705H19.2283V43.0484H19.7732V42.9705H19.6954V42.6591H19.7732C19.7732 42.6591 19.851 42.737 19.851 42.8148C19.9289 42.9705 20.0067 43.0484 20.0067 43.0484H20.3181V42.9705C20.3181 43.1262 20.3181 43.1262 20.2403 43.1262C20.3181 43.1262 20.3181 43.1262 20.2403 43.1262ZM19.851 42.5813C19.851 42.6591 19.851 42.6591 19.851 42.5813C19.7732 42.6591 19.6954 42.6591 19.6175 42.6591V42.3478C19.6954 42.3478 19.7732 42.3478 19.7732 42.4256V42.5813H19.851ZM21.5636 42.8148H21.4858C21.4858 42.8927 21.4858 42.8927 21.4079 42.9705L21.3301 43.0484H21.0966V42.737H21.2522V42.8148H21.3301V42.5034H21.2522V42.5813H21.0966V42.2699H21.3301L21.4079 42.3478C21.4079 42.3478 21.4079 42.4256 21.4858 42.4256H21.5636V42.1921L20.7073 42.2699V42.3478H20.7852V43.0484H20.7073V43.1262L21.5636 43.204V42.8148ZM27.2462 41.8807H27.1684V42.0364C27.1684 42.0364 27.1684 42.1142 27.0906 42.1142C27.0906 42.1142 27.0127 42.1142 26.9349 42.1921H26.857V41.8807H27.0127V41.9585H27.0906L27.0127 41.6472H26.9349V41.725H26.7792L26.7013 41.4136H27.0127L27.0906 41.4915H27.1684L27.0906 41.2579L26.2343 41.3358V41.4136H26.3121V41.4915L26.39 42.0364V42.1142H26.3121V42.1921L27.1684 42.0364L27.2462 41.8807ZM27.6355 41.1801C27.5576 41.1801 27.5576 41.1801 27.6355 41.1801V41.4915H27.7133V41.4136C27.7133 41.4136 27.7133 41.3358 27.7912 41.3358H27.9468V42.1142H27.869V42.1921H28.4139V42.1142H28.3361V41.3358H28.5696C28.5696 41.3358 28.6474 41.4136 28.6474 41.4915H28.7253V41.1801H27.6355ZM30.5935 41.4915C30.4379 41.4915 30.36 41.4136 30.2822 41.4136C30.1265 41.4136 29.9708 41.4136 29.8929 41.4915C29.8151 41.5693 29.7373 41.725 29.6594 41.8028C29.6594 41.9585 29.6594 42.0364 29.7373 42.1921C29.8151 42.3478 29.8929 42.4256 30.0486 42.4256C30.2043 42.4256 30.2822 42.4256 30.36 42.3478V42.4256H30.4378L30.5157 42.0364H30.4378C30.4378 42.1142 30.36 42.1921 30.2822 42.2699C30.2043 42.2699 30.1265 42.3478 30.1265 42.2699C30.0486 42.2699 30.0486 42.2699 29.9708 42.1921C29.9708 42.1921 29.8929 42.1142 29.8929 42.0364V41.8028C29.8929 41.6472 29.9708 41.5693 29.9708 41.4915C30.0486 41.4136 30.0486 41.4136 30.1265 41.4136C30.2043 41.4136 30.2822 41.4915 30.2822 41.4915C30.36 41.5693 30.36 41.6472 30.36 41.725H30.4378L30.5157 41.3358C30.6714 41.4915 30.6714 41.4915 30.5935 41.4915ZM31.6055 41.6472H31.2941C31.2163 41.6472 31.1384 41.725 31.0606 41.8028C30.9828 41.8807 30.9828 41.9585 30.9049 42.0364V42.2699C30.9049 42.3478 30.9828 42.4256 31.0606 42.5034C31.1384 42.5813 31.2163 42.5813 31.372 42.6591H31.5277C31.6055 42.6591 31.7612 42.6591 31.839 42.5813C31.9947 42.5034 32.0726 42.4256 32.0726 42.2699C32.0726 42.1142 32.0726 41.9585 31.9947 41.8807C31.9169 41.8028 31.839 41.725 31.6055 41.6472ZM31.7612 42.2699C31.7612 42.4256 31.6834 42.5034 31.6055 42.5813C31.5277 42.6591 31.5277 42.6591 31.4498 42.6591C31.372 42.6591 31.2941 42.5813 31.2941 42.5034V42.1921C31.2941 42.0364 31.372 41.9585 31.372 41.8807C31.372 41.8807 31.4498 41.8028 31.5277 41.8028H31.6055C31.6834 41.8028 31.7612 41.8807 31.7612 41.9585V42.2699ZM33.2402 42.0364V42.1142C33.2402 42.1142 33.3181 42.1142 33.3181 42.1921V42.2699L33.2402 42.5813L32.851 41.9585L32.5397 41.8807V41.9585C32.6175 41.9585 32.6175 42.0364 32.6175 42.1142L32.5397 42.5813V42.6591H32.384V42.737L32.7732 42.8148V42.737C32.7732 42.737 32.6953 42.737 32.6953 42.6591V42.5034L32.7732 42.1142L33.2402 42.8927H33.3181L33.4738 42.1142V42.0364H33.6295V41.9585L33.2402 42.0364ZM34.4858 42.6591C34.4858 42.6591 34.4079 42.5813 34.3301 42.5813C34.2522 42.5034 34.1744 42.5034 34.1744 42.5034L34.0965 42.4256V42.2699H34.1744C34.2522 42.2699 34.2522 42.2699 34.2522 42.3478C34.2522 42.4256 34.3301 42.4256 34.3301 42.5034H34.4079V42.1921H34.3301C34.3301 42.1921 34.2522 42.1921 34.2522 42.1142L34.1744 42.0364C34.0965 42.0364 34.0187 42.0364 33.9408 42.1142C33.863 42.1921 33.863 42.2699 33.7852 42.3478V42.5034C33.7852 42.5813 33.863 42.5813 33.863 42.6591C33.863 42.6591 33.9408 42.737 34.0965 42.8148L34.1744 42.8927V43.0484H34.0965C34.0187 43.0484 34.0187 43.0483 33.9408 42.9705C33.863 42.8927 33.863 42.8927 33.863 42.737H33.7852V43.0484H33.863V42.9705L33.9408 43.0484C34.0187 43.0484 34.0187 43.1262 34.0965 43.1262H34.1744C34.2522 43.1262 34.3301 43.1262 34.4079 43.0484C34.4858 42.9705 34.4857 42.8927 34.5636 42.8148V42.6591C34.5636 42.737 34.5636 42.6591 34.4858 42.6591ZM34.9528 42.1921V42.5034H35.0307V42.4256C35.0307 42.4256 35.0307 42.3478 35.1085 42.3478H35.2642V43.1262H35.1863V43.204H35.7313V43.1262H35.6534V42.3478H35.8869C35.8869 42.3478 35.9648 42.4256 35.9648 42.5034H36.0426V42.1921H34.9528ZM37.2103 43.0484C37.1325 43.0484 37.1325 43.0484 37.2103 43.0484C37.1325 43.0484 37.1324 42.9705 37.0546 42.8927L36.6654 42.1921H36.5875L36.354 42.9705C36.354 43.0483 36.2762 43.1262 36.1983 43.1262V43.204H36.5097V43.1262H36.4319V43.0484H36.7432V43.1262H36.6654V43.204H37.1325L37.2103 43.0484ZM36.5097 42.8148L36.5875 42.5813L36.6654 42.8148H36.5097ZM38.3001 42.1142L38.378 42.0364V41.9585L38.0666 42.0364V42.1142C38.1444 42.1142 38.2223 42.1142 38.2223 42.1921L38.3001 42.5034L37.6774 42.0364L37.366 42.1142V42.1921C37.366 42.1921 37.4438 42.1921 37.4438 42.2699L37.5217 42.737V42.8927H37.4438V42.9705L37.833 42.8927V42.8148H37.7552C37.7552 42.8148 37.6774 42.8148 37.6774 42.737L37.5995 42.3478L38.3001 42.8927H38.378L38.2223 42.1142H38.3001ZM39.7013 42.4256H39.6235L39.5456 42.3478L39.3121 41.725H39.5456L39.6235 41.8028H39.7013L39.6235 41.5693L38.6893 41.8807L38.7672 42.1142H38.845V41.9585C38.845 41.9585 38.9229 41.9585 38.9229 41.8807H39.0007L39.2342 42.5034V42.5813L39.1564 42.6591V42.737L39.7013 42.5813V42.4256ZM40.7911 41.9585H40.6354L40.5576 41.8807L40.3241 41.3358V41.2579L40.4019 41.1801V41.1022L39.9348 41.3358V41.4136H40.0127L40.0905 41.4915L40.3241 42.0364V42.1142L40.2462 42.1921V42.2699L40.7133 42.0364C40.7911 42.0364 40.7911 42.0364 40.7911 41.9585ZM41.881 41.1801H41.8031C41.8031 41.1801 41.7253 41.1801 41.6474 41.1022L40.9468 40.713L40.869 40.7909L41.1025 41.5693V41.8028L41.1803 41.8807L41.4139 41.725L41.336 41.6472H41.2582V41.5693L41.4917 41.4136L41.5696 41.4915L41.4917 41.5693L41.5696 41.6472L41.9588 41.3358C41.9588 41.2579 41.9588 41.2579 41.881 41.1801ZM41.1803 41.4136L41.1025 41.1801L41.336 41.3358L41.1803 41.4136Z" fill="#F8F6D8"/>
<path d="M43.5148 39.623C43.2035 38.0661 41.958 36.12 41.8801 36.0422C41.8801 36.0422 40.7903 34.7188 38.7663 35.6529C38.6885 35.6529 37.2095 36.3535 36.9759 37.5212V37.6769L37.8322 39.7008C37.8322 39.7787 37.9101 39.7787 37.9879 39.8565C38.0658 39.8565 38.1436 39.8565 38.1436 39.7787C38.1436 39.7787 38.8442 39.0002 39.934 38.8446C40.2454 38.7667 40.5568 38.7667 40.8681 38.8446C39.3891 40.3236 35.964 41.3356 32.0717 40.4793L31.1376 38.4553L31.2933 38.3775C31.3711 38.3775 31.3712 38.2996 31.3712 38.2996V38.144L29.7364 34.4853C29.8921 34.1739 30.0478 33.7847 30.0478 33.3955C30.0478 32.2278 29.1137 31.2158 27.8682 31.2158C26.7005 31.2158 25.6885 32.15 25.6885 33.3955C25.6885 33.7847 25.7664 34.1739 25.9999 34.4853L24.3652 38.144V38.2996C24.3652 38.3775 24.443 38.3775 24.443 38.3775L24.5987 38.4553L23.6646 40.5571C19.8502 41.3356 16.5808 40.3236 15.1796 38.8446H16.1137C17.2035 39.0781 17.9041 39.7787 17.9041 39.7787C17.9819 39.8565 17.9819 39.8565 18.0598 39.8565C18.1376 39.8565 18.2155 39.7787 18.2155 39.7008L19.0718 37.6769V37.5212C18.8382 36.3535 17.3592 35.6529 17.2813 35.6529C15.2574 34.7188 14.1676 36.0422 14.1676 36.0422C14.0897 36.12 12.8442 38.0661 12.5329 39.623C12.1436 41.4134 13.3891 42.9703 15.7245 43.9044C17.1257 44.4493 18.449 44.605 19.6945 44.605C20.3951 44.605 21.0957 44.5272 21.7963 44.4493L20.1616 48.1859C20.1616 48.2637 19.3831 49.7427 19.3831 51.8445C19.3831 51.9224 19.461 52.0002 19.5388 52.0002H19.6167C19.6945 52.0002 19.6945 52.0002 19.7724 51.9224C21.1736 50.5212 21.7963 48.8865 21.7963 48.8865L23.976 43.9823L24.9101 43.7487C25.1436 43.6709 25.3771 43.6709 25.5328 43.593C26.3891 43.4374 27.1676 43.2817 27.8682 43.2038C28.5688 43.2038 29.3472 43.3595 30.2035 43.593C30.437 43.6709 30.6705 43.6709 30.8262 43.7487C31.0598 43.8266 31.2155 43.8266 31.449 43.9044L33.6286 48.8865C33.6286 48.9643 34.2514 50.599 35.6526 51.9224C35.6526 51.9224 35.7304 52.0002 35.8083 52.0002H35.8861C35.9639 52.0002 36.0418 51.9224 36.0418 51.8445C36.1196 49.7427 35.2634 48.2637 35.2634 48.1859L33.5508 44.3715C34.3292 44.5272 35.1077 44.605 35.964 44.605C37.2873 44.605 38.6107 44.3715 39.934 43.9044C42.7364 42.9703 43.9041 41.4134 43.5148 39.623ZM40.0119 38.3775C39.1556 38.5332 38.5328 39.0002 38.2214 39.2338L37.5208 37.5212C37.7544 36.5871 39.0777 35.9643 39.0777 35.9643C40.7125 35.2637 41.4909 36.0422 41.6466 36.1978C42.0358 37.0541 41.7244 37.7547 41.413 38.2996C40.8681 38.2996 40.4011 38.2996 40.0119 38.3775ZM31.6825 40.2457C31.5268 40.1679 31.3711 40.1679 31.2155 40.0901C30.9819 40.0122 30.7484 39.9344 30.5149 39.9344L30.0478 38.8446L30.9041 38.5332L31.6825 40.2457ZM30.9819 37.9883L29.5029 38.6889V38.611L28.2574 35.7308L28.3352 35.4973C28.8023 35.4194 29.2694 35.1859 29.5807 34.8745L30.9819 37.9883ZM29.97 39.8565C29.6586 39.7787 29.2694 39.7787 28.958 39.7008H28.1017C27.4011 39.7008 26.7783 39.7787 26.0777 39.9344L26.467 39.0781H26.6227C26.7005 39.0781 26.7783 39.0002 26.7783 38.9224L28.0238 36.12L29.2694 38.9224C29.2694 39.0002 29.3472 39.0781 29.425 39.0781H29.5807L29.97 39.8565ZM28.0238 31.5272C28.958 31.5272 29.7364 32.3056 29.7364 33.2398C29.7364 33.4733 29.7364 33.629 29.6586 33.7847C29.6586 33.8625 29.5807 33.9404 29.5807 34.0182C29.5029 34.0961 29.5029 34.1739 29.425 34.2517C29.1915 34.5631 28.958 34.7188 28.5688 34.8745C28.4909 34.8745 28.4131 34.9523 28.3352 34.9523H27.7125C27.6346 34.9523 27.5568 34.9523 27.4789 34.8745C27.1676 34.7967 26.8562 34.5631 26.6227 34.2517C26.5448 34.1739 26.5448 34.0961 26.467 34.0182C26.3891 33.9404 26.3891 33.8625 26.3891 33.7847C26.3113 33.629 26.3113 33.3955 26.3113 33.2398C26.3113 32.3056 27.0897 31.5272 28.0238 31.5272ZM25.0658 37.9883L26.467 34.7967C26.7783 35.108 27.2454 35.3416 27.7125 35.4194H27.946L27.8682 35.6529L26.6227 38.5332V38.611L25.0658 37.9883ZM14.7903 36.2757C14.946 36.12 15.7245 35.3416 17.3592 36.0422C17.3592 36.0422 18.6825 36.6649 18.9161 37.599L18.2155 39.3116C17.9041 39.0002 17.2813 38.611 16.4251 38.4553C15.958 38.3775 15.5688 38.3775 15.1017 38.4553C14.7125 37.8326 14.4011 37.132 14.7903 36.2757ZM16.1137 43.5152C13.934 42.6589 12.9221 41.2577 13.2335 39.7008C13.3891 38.9224 13.8562 37.9883 14.1676 37.2877C14.1676 37.4434 14.1676 37.599 14.2454 37.7547C14.3233 37.9883 14.4011 38.2996 14.6346 38.5332C14.6346 38.611 14.7125 38.611 14.7903 38.6889C14.8682 38.7667 14.8682 38.8446 14.946 38.8446L15.0239 38.9224C16.4251 40.5571 19.8502 41.6469 23.7424 40.9463L22.3412 44.0601C20.3951 44.3715 18.2933 44.3715 16.1137 43.5152ZM23.976 43.6709L23.8981 43.9044V43.9823L23.8203 44.138V44.2158L21.7963 48.8865C21.7963 48.8865 21.3292 50.2098 20.2394 51.4553C20.3173 49.7427 20.94 48.5751 20.94 48.4972L22.7304 44.4493L22.8083 44.2158L22.8861 43.9823L24.2873 40.8685L24.3652 40.635L24.443 40.4014L25.2215 38.5332L26.0777 38.9224L25.6107 40.0901L25.5328 40.3236V40.4014L25.455 40.635L23.976 43.6709ZM35.2634 48.4972C35.2634 48.4972 35.8861 49.6649 35.964 51.3775C34.8741 50.132 34.4071 48.8864 34.4071 48.8086L32.3053 44.138L33.4729 44.3715L35.2634 48.4972ZM40.2454 43.5152C37.9879 44.3715 35.8083 44.2936 33.7843 43.9823C33.7065 43.9823 33.6286 43.9823 33.5508 43.9044C33.4729 43.9044 33.3951 43.9044 33.3173 43.8266H33.1616C33.0837 43.8266 33.0059 43.8266 32.928 43.7487C32.6945 43.6709 32.461 43.6709 32.2274 43.593C32.1496 43.593 32.0717 43.593 31.9939 43.5152C31.9161 43.5152 31.8382 43.4374 31.7604 43.4374C31.6825 43.4374 31.5268 43.3595 31.449 43.3595C31.2155 43.2817 30.9819 43.2817 30.7484 43.2038C29.8921 42.9703 29.1137 42.8146 28.4131 42.8146H28.3352C27.6346 42.8146 26.8562 42.9703 25.9221 43.2038C25.7664 43.2038 25.6885 43.2817 25.5328 43.2817C25.2215 43.3595 24.9101 43.4374 24.6765 43.4374L26.0777 40.2457C26.8562 40.0122 27.5568 39.9344 28.4131 39.9344H28.4909C29.1137 39.9344 29.7364 40.0122 30.437 40.1679C30.5149 40.1679 30.5927 40.1679 30.6705 40.2457C30.7484 40.2457 30.8262 40.3236 30.9041 40.3236C30.9819 40.3236 31.1376 40.4014 31.2155 40.4014C31.449 40.4793 31.7604 40.5571 31.9939 40.635C32.0717 40.635 32.1496 40.635 32.2274 40.7128C32.3053 40.7128 32.3831 40.7128 32.461 40.7907C36.5089 41.5691 40.0897 40.4793 41.4909 38.8446L41.5687 38.7667C41.6466 38.6889 41.6466 38.611 41.7244 38.611L41.8801 38.4553C42.0358 38.2218 42.1915 37.9104 42.2693 37.6769C42.2693 37.5212 42.3472 37.3655 42.3472 37.2098C42.7364 37.9104 43.1256 38.8446 43.2813 39.623C43.437 41.2577 42.3472 42.6589 40.2454 43.5152Z" fill="#F8F6D8"/>
</svg>
