<svg width="616" height="659" viewBox="0 0 616 659" fill="none" xmlns="http://www.w3.org/2000/svg">
<path d="M239.194 227.527C239.194 227.527 42.6036 350.342 22.3018 439.591C2 528.839 0 659 0 659H615.5C615.5 659 606.587 470.098 582.993 419.357C565.905 382.654 399.179 218.194 399.179 218.194L239.116 227.527H239.194Z" fill="#201609"/>
<path d="M375.271 347.597C311.23 348.303 192.712 189.647 192.712 189.647L203.999 157.649L221.244 161.728C222.185 162.826 223.204 163.688 224.223 164.394C237.862 172.942 232.531 177.256 237.94 180.55C241.546 182.746 246.562 182.667 249.933 181.334L250.325 182.275C250.325 182.275 250.168 183.216 249.933 184.863C248.992 192.078 247.111 211.999 254.636 218.037C263.886 225.409 340.155 298.738 375.898 295.601C402.863 293.248 403.098 257.799 401.452 234.193C400.903 226.507 400.12 220.076 400.041 216.469C400.041 214.587 400.041 212.391 400.198 210.116C409.291 223.449 428.26 251.761 430.925 260.858C434.452 272.857 439.391 346.891 375.35 347.597H375.271Z" fill="#F8F6D8"/>
<path d="M400.668 235.918C402.393 259.525 402.079 294.973 375.114 297.326C339.371 300.463 263.102 227.135 253.852 219.763C246.327 213.724 248.208 193.725 249.149 186.588C249.384 184.941 249.541 184 249.541 184L248.6 181.883L221.714 119.064L216.933 107.849L216.462 106.829C216.462 106.829 202.745 7.46361 297.905 0.405279C344.231 -3.04546 368.06 21.345 380.837 47.9314C394.24 76.0079 395.416 106.516 397.454 109.731C401.452 116.005 402.393 128.475 401.922 139.69C401.452 150.905 403.725 152.63 404.587 163.374C405.45 174.119 398.787 203.607 399.257 218.351C399.336 221.959 400.119 228.389 400.668 236.075V235.918Z" fill="url(#paint0_linear_310_1044)"/>
<path d="M400.668 235.918C402.393 259.525 402.079 294.973 375.114 297.326C339.371 300.463 263.102 227.135 253.852 219.763C246.327 213.724 248.208 193.725 249.149 186.588C249.384 184.941 249.541 184 249.541 184L248.6 181.883L221.714 119.064L216.933 107.849L216.462 106.829C216.462 106.829 202.745 7.46361 297.905 0.405279C344.231 -3.04546 368.06 21.345 380.837 47.9314C394.24 76.0079 395.416 106.516 397.454 109.731C401.452 116.005 402.393 128.475 401.922 139.69C401.452 150.905 403.725 152.63 404.587 163.374C405.45 174.119 398.787 203.607 399.257 218.351C399.336 221.959 400.119 228.389 400.668 236.075V235.918Z" fill="url(#paint1_linear_310_1044)"/>
<path d="M319.461 149.414C314.914 148.316 313.895 152.787 308.722 153.179C303.548 153.571 296.807 150.748 292.496 146.905C292.496 146.905 293.672 145.179 296.023 143.454C298.297 141.807 301.589 140.003 306.135 139.533C306.762 139.533 307.311 139.376 307.938 139.376C318.52 138.984 318.912 146.199 323.066 146.905C327.221 147.689 324.007 150.434 319.461 149.414Z" fill="#FAF8D9"/>
<path d="M395.259 142.199C395.259 142.199 390.634 146.591 383.815 146.983C376.917 147.375 374.095 145.18 372.057 145.18C370.019 145.18 368.922 147.062 368.373 145.023C368.373 145.023 369.784 141.023 373.468 138.121C375.741 136.317 378.955 134.827 383.188 135.063C383.266 135.063 383.345 135.063 383.423 135.063C394.711 135.69 395.338 142.278 395.338 142.278L395.259 142.199Z" fill="#FAF8D9"/>
<path d="M380.837 47.8533C376.604 54.6763 366.492 65.107 343.447 67.3029C308.644 70.6752 290.458 49.0297 290.458 49.0297C290.458 49.0297 284.187 44.7162 280.738 46.8337C277.289 49.0297 276.976 58.1271 276.976 58.1271L266.002 102.595L257.223 115.77C257.615 129.73 258.007 143.768 258.399 157.728C258.399 155.454 255.969 182.118 253.225 178.511C245.151 167.845 232.061 138.278 221.714 118.986L216.933 107.771L216.462 106.751C216.462 106.751 202.745 7.38549 297.905 0.327154C344.231 -3.12359 368.06 21.2669 380.837 47.8533Z" fill="#251A0D"/>
<path d="M332.473 227.214L349.718 239.448H369.549L378.25 227.214L367.12 223.214L358.184 225.175L350.894 223.214L332.473 227.214Z" fill="#E20E3B"/>
<path d="M287.323 156.787C287.323 156.787 297.356 170.433 307.468 170.433C317.58 170.433 328.319 156.787 328.319 156.787" stroke="#22170B" stroke-miterlimit="10"/>
<path d="M372.136 153.18C372.136 153.18 375.741 160.395 385.069 160.395C394.397 160.395 395.887 153.18 395.887 153.18" stroke="#22170B" stroke-miterlimit="10"/>
<path d="M293.045 119.456L310.995 115.064L336.941 122.123L334.903 126.515L310.995 119.064L293.045 119.456Z" fill="#22170B"/>
<path d="M365.63 122.437L367.668 126.515L383.972 119.064L397.062 120.79L383.972 115.064L365.63 122.437Z" fill="#22170B"/>
<path d="M370.098 244.623H347.601L328.24 228.311L324.321 225.958L350.737 218.194L358.497 220.939L369.393 218.194L384.051 225.174L370.176 244.623H370.098ZM400.668 235.918C396.749 216.782 377.858 208.94 374.331 209.489C370.804 209.959 370.333 217.488 362.259 217.88C354.264 218.272 353.715 210.43 341.174 209.489C328.632 208.469 310.995 217.88 310.995 217.88L258.477 157.728C258.477 157.728 255.969 164.394 253.069 173.334C252.285 175.765 253.225 180.236 250.482 179.53C246.719 178.51 249.541 182.902 249.149 186.588C248.209 193.725 246.327 213.724 253.852 219.762C263.102 227.134 339.371 300.463 375.115 297.326C402.079 294.973 402.314 259.524 400.668 235.918Z" fill="#1F1408"/>
<path d="M355.362 133.181L365.63 156.787L368.687 178.119C368.687 178.119 374.723 190.745 374.566 200.078C374.409 209.411 366.727 212.783 359.908 210.352C353.088 207.921 351.286 201.411 348.934 201.411C346.582 201.411 345.015 202.744 341.331 201.411C337.646 200.078 337.646 193.569 337.646 193.569L355.362 133.181Z" fill="#21170A"/>
<path d="M309.114 145.023C309.114 148.709 306.135 151.611 302.53 151.611C298.924 151.611 295.945 148.631 295.945 145.023C295.945 141.415 295.945 144.003 296.102 143.454C298.375 141.808 301.667 140.004 306.214 139.533C307.938 140.71 309.114 142.749 309.114 145.023Z" fill="#21170A"/>
<path d="M385.54 139.847C385.54 143.298 382.796 146.043 379.347 146.043C375.898 146.043 373.155 143.298 373.155 139.847C373.155 136.396 373.233 138.671 373.39 138.043C375.663 136.239 378.877 134.749 383.11 134.984C384.599 136.082 385.461 137.886 385.461 139.847H385.54Z" fill="#21170A"/>
<path d="M248.052 150.199C248.052 150.199 237.235 106.986 220.225 106.986C203.215 106.986 210.584 155.846 224.223 164.394C237.862 172.943 232.532 177.256 237.94 180.55C243.349 183.844 252.128 182.04 253.304 178.432C254.48 174.825 248.052 150.199 248.052 150.199Z" fill="url(#paint2_linear_310_1044)"/>
<path d="M334.197 97.732C334.197 97.732 343.133 105.104 355.91 104.32C368.687 103.536 375.271 96.3203 375.271 96.3203" stroke="#201609" stroke-miterlimit="10"/>
<path d="M349.639 92.0859C349.639 92.0859 356.145 96.4778 362.886 92.0859" stroke="#201609" stroke-miterlimit="10"/>
<path d="M192.712 189.726L224.223 164.395L219.363 223.214L253.931 219.763L256.674 265.407L293.045 251.134L298.375 306.032L337.725 282.896L349.639 341.323L368.373 297.405L389.067 346.186V290.582L427.946 309.953L400.903 260.153L430.847 260.937L399.257 218.195L408.899 223.214" stroke="#1F1408" stroke-miterlimit="10"/>
<defs>
<linearGradient id="paint0_linear_310_1044" x1="309.349" y1="238.977" x2="310.918" y2="49.9705" gradientUnits="userSpaceOnUse">
<stop stop-color="#F8F6D8"/>
<stop offset="0.3" stop-color="#F0A6A2"/>
<stop offset="0.5" stop-color="#E96475"/>
<stop offset="0.7" stop-color="#E43455"/>
<stop offset="0.9" stop-color="#E21741"/>
<stop offset="1" stop-color="#E10C3A"/>
</linearGradient>
<linearGradient id="paint1_linear_310_1044" x1="309.349" y1="238.977" x2="310.918" y2="49.9705" gradientUnits="userSpaceOnUse">
<stop stop-color="#F8F6D8"/>
<stop offset="0.3" stop-color="#F0A6A2"/>
<stop offset="0.5" stop-color="#E96475"/>
<stop offset="0.7" stop-color="#E43455"/>
<stop offset="0.9" stop-color="#E21741"/>
<stop offset="1" stop-color="#E10C3A"/>
</linearGradient>
<linearGradient id="paint2_linear_310_1044" x1="255.577" y1="169.884" x2="223.186" y2="134.766" gradientUnits="userSpaceOnUse">
<stop stop-color="#F8F6D8"/>
<stop offset="0.1" stop-color="#F6E4CC"/>
<stop offset="0.3" stop-color="#F1B8AE"/>
<stop offset="0.6" stop-color="#EA6F7D"/>
<stop offset="1" stop-color="#E10C3A"/>
</linearGradient>
</defs>
</svg>
